<svg xmlns="http://www.w3.org/2000/svg" xmlns:xlink="http://www.w3.org/1999/xlink" width="60.952" height="88.61" viewBox="0 0 60.952 88.61">
    <defs>
        <radialGradient id="88qro46hnb" cx=".506" cy=".445" r="1.909" gradientTransform="matrix(.36 -.056 .02 .998 .483 .045)" gradientUnits="objectBoundingBox">
            <stop offset="0" stop-color="#b7eae0"/>
            <stop offset=".51" stop-color="#22b573"/>
            <stop offset=".69" stop-color="#22b573"/>
            <stop offset=".93" stop-color="#006837"/>
        </radialGradient>
        <radialGradient id="a0f8xwii5a" cx=".438" cy=".113" r=".538" gradientTransform="matrix(1.137 -.056 .064 .998 -.114 .041)" gradientUnits="objectBoundingBox">
            <stop offset="0" stop-color="#b7eae0"/>
            <stop offset=".53" stop-color="#7ed9c7"/>
            <stop offset="1" stop-color="#4ccab2"/>
        </radialGradient>
        <radialGradient id="rqz4earn2d" cx=".76" cy=".426" r=".48" gradientTransform="matrix(1.665 0 0 1 -.332 0)" xlink:href="#a0f8xwii5a"/>
        <radialGradient id="1qro4l7j1e" cx=".428" cy=".371" r=".745" gradientTransform="matrix(1.234 -.056 .069 .998 -.27 .056)" gradientUnits="objectBoundingBox">
            <stop offset="0" stop-color="#b7eae0"/>
            <stop offset=".49" stop-color="#4ccab2"/>
            <stop offset=".77" stop-color="#399886"/>
            <stop offset=".92" stop-color="#266559"/>
        </radialGradient>
        <radialGradient id="ypk3yqx63f" cx=".44" cy=".342" r="1.056" gradientTransform="matrix(.813 0 0 1 .083 0)" xlink:href="#88qro46hnb"/>
        <radialGradient id="9xn54g7thg" cx="12.503" cy="-3.043" r="11.067" gradientTransform="matrix(1.074 0 0 1 -.037 0)" xlink:href="#a0f8xwii5a"/>
        <radialGradient id="vkt96a8m4h" cx="13.55" cy="-3.043" r="11.067" gradientTransform="matrix(1.07 0 0 1 -.035 0)" xlink:href="#a0f8xwii5a"/>
        <radialGradient id="wu21ia69ji" cx="8.187" cy="-8.405" r="11.067" gradientTransform="matrix(1.062 0 0 1 -.031 0)" xlink:href="#a0f8xwii5a"/>
        <radialGradient id="6bmnym7c8j" cx="9.251" cy="-8.405" r="11.067" gradientTransform="matrix(1.062 0 0 1 -.031 0)" xlink:href="#a0f8xwii5a"/>
        <radialGradient id="ujvdqi4aik" cx="6.758" cy="-3.394" r="11.067" gradientTransform="matrix(1.074 0 0 1 -.037 0)" xlink:href="#a0f8xwii5a"/>
        <radialGradient id="9dj5bml6ql" cx="1.633" cy="-1.215" r="3.069" gradientTransform="matrix(.451 0 0 1 .274 0)" xlink:href="#a0f8xwii5a"/>
        <radialGradient id="dcj9d5sopm" cx="2.362" cy="-2.432" r="10.989" gradientTransform="matrix(1.069 0 0 1 -.035 0)" xlink:href="#a0f8xwii5a"/>
        <radialGradient id="a3fwq3grin" cx="2.669" cy="-3.325" r="10.879" gradientTransform="matrix(1.08 0 0 1 -.04 0)" xlink:href="#a0f8xwii5a"/>
        <radialGradient id="0j3pce521o" cx="1.616" cy="-3.349" r="10.926" gradientTransform="matrix(1.091 0 0 1 -.045 0)" xlink:href="#a0f8xwii5a"/>
        <radialGradient id="o9pmplv3pp" cx="1.263" cy="-.655" r="2.292" gradientTransform="matrix(1.345 0 0 1 -.172 0)" xlink:href="#a0f8xwii5a"/>
        <radialGradient id="g5sp7aro2q" cx="-1.601" cy="-3.043" r="11.067" gradientTransform="matrix(1.077 0 0 1 -.038 0)" xlink:href="#a0f8xwii5a"/>
        <radialGradient id="9nhdn9pq2r" cx="-2.67" cy="-3.043" r="11.067" gradientTransform="matrix(1.074 0 0 1 -.037 0)" xlink:href="#a0f8xwii5a"/>
        <radialGradient id="kptvxxmqns" cx="-.113" cy="-1.01" r="2.56" gradientTransform="matrix(.439 0 0 1 .28 0)" xlink:href="#a0f8xwii5a"/>
        <radialGradient id="85rpcoxh3t" cx="-2.055" cy="-.879" r="2.221" gradientTransform="matrix(.939 0 0 1 .03 0)" xlink:href="#a0f8xwii5a"/>
        <radialGradient id="goj8zrk83u" cx="-14.521" cy="-2.927" r="10.909" gradientTransform="matrix(1.077 0 0 1 -.039 0)" xlink:href="#a0f8xwii5a"/>
        <radialGradient id="gikny8huvv" cx="205.767" cy="27.275" r="221.474" gradientTransform="matrix(.667 0 0 1 .167 0)" xlink:href="#88qro46hnb"/>
        <radialGradient id="utar29fz4w" cx=".512" cy=".416" r="2.113" gradientTransform="matrix(-.17 .06 .01 .998 -5.337 .275)" xlink:href="#88qro46hnb"/>
        <linearGradient id="6463w9bzwc" x1="1.302" x2="1.83" y1=".435" y2=".699" gradientUnits="objectBoundingBox">
            <stop offset=".01" stop-color="#fff"/>
            <stop offset="1" stop-color="#fff" stop-opacity="0"/>
        </linearGradient>
        <linearGradient id="c0css64emx" x1="-4.121" x2="-4.927" y1="3.766" y2=".366" xlink:href="#6463w9bzwc"/>
    </defs>
    <g>
        <g>
            <g>
                <path fill="url(#88qro46hnb)" d="M51.866 144.888a37 37 0 0 1-9-.508c-.181-.036-.472-.036-.508-.218s.218-.29.363-.4a30.674 30.674 0 0 1 8.458-4.283 83.449 83.449 0 0 1 11.216-2.9l2.069-.327.218-.073h-.218c-1.525.073-3.085.073-4.61.29a39.091 39.091 0 0 0-8.567 2 66.052 66.052 0 0 0-6.171 2.686c-1.379.653-2.65 1.525-3.993 2.323-.109.073-.29.145-.363.073s.036-.218.109-.29a40.574 40.574 0 0 1 2.65-3.231 22.215 22.215 0 0 1 8.494-5.445 29.654 29.654 0 0 1 5.445-1.343 32.474 32.474 0 0 1 11.979.8c1.416.327 2.8.762 4.211 1.2.182.036.436.145.436.327s-.218.254-.363.327c-3.122 1.416-5.989 3.267-8.966 4.973a32.632 32.632 0 0 1-7.151 3.267 20.58 20.58 0 0 1-5.738.752z" transform="translate(-421.687 3.064) translate(426.183 -3.064) translate(-25.954 -84.711)"/>
                <path fill="url(#a0f8xwii5a)" d="M38.9 3.75l-2.105.218c-.145 0-.363.036-.4-.073s.145-.254.254-.327a17.424 17.424 0 0 1 5.118-2.541 20.241 20.241 0 0 1 18.15 2.8 24.775 24.775 0 0 1 8.639 10.49c.835 1.851 1.6 3.739 2.359 5.626a6.755 6.755 0 0 0 2.831 3.34c1.2.907 1.779 1.234 2.614 1.888 1.6 1.234 1.561 2-.109 3.122-.653.436-1.343.762-2 1.2s-.617.581-.145 1.162a11.867 11.867 0 0 1 .907 1.162 1.278 1.278 0 0 1 .182 1.379 1.561 1.561 0 0 0 .254 1.96 1.547 1.547 0 0 1 .073 2.033 7.365 7.365 0 0 0-.762 5.372c.508 1.815-1.416 4.283-3.7 4.029a6.679 6.679 0 0 1-1.343-.29 27.357 27.357 0 0 0-7.478-1.053 41.39 41.39 0 0 0-11.942 1.6 2.541 2.541 0 0 1-.653 0 2.794 2.794 0 0 1 .29-.653c.871-1.125 1.706-2.287 2.614-3.34 2.142-2.468 4.32-4.937 6.534-7.3a11.993 11.993 0 0 0 3.231-6.461 20.291 20.291 0 0 0 .436-7.115c-.581-4.61-2.069-8.784-5.409-12.2A19.449 19.449 0 0 0 45.5 4.041a56.3 56.3 0 0 0-6.6-.291z" transform="translate(-421.687 3.064) translate(426.183 -3.064) translate(-23.185 -.018)"/>
                <path fill="url(#rqz4earn2d)" d="M29.993 39.32a15.432 15.432 0 0 1-1.923 8.28 44.729 44.729 0 0 1-9.111 12.051c-2.614 2.541-5.336 4.937-8.022 7.405l-.327.327c-.109.073-.254.145-.327.073a.341.341 0 0 1-.036-.327c.181-.944.436-1.851.581-2.8a14.728 14.728 0 0 0-1.852-10.054C7.6 51.952 6.072 49.7 4.584 47.415A24.078 24.078 0 0 1 .337 38.3a20.836 20.836 0 0 1 .218-8.349 20.255 20.255 0 0 1 3.412-7.913 13.261 13.261 0 0 1 4.828-4.356c.145-.073.363-.254.508-.145s-.036.4-.145.544a27.95 27.95 0 0 0-3.775 11.692 14.036 14.036 0 0 0 1.089 7.7 9.263 9.263 0 0 0 7.587 5.481 11.252 11.252 0 0 0 9.8-3.811 8.167 8.167 0 0 0 2-5.336 7.548 7.548 0 0 0-.145-.835c0-.218-.145-.508.036-.617s.508.036.653.181a10.744 10.744 0 0 1 1.67 1.488 8.24 8.24 0 0 1 1.92 5.296z" transform="translate(-421.687 3.064) translate(426.183 -3.064) translate(-.016 -11.158)"/>
                <path fill="url(#1qro4l7j1e)" d="M67.965 37.992c0 .181-.036.508-.181.472s-.109-.4-.145-.581c-.073-1.96 0-3.957-.181-5.917a21.09 21.09 0 0 0-2.614-8.784 16.262 16.262 0 0 0-5.554-5.663 32.854 32.854 0 0 0-10.164-3.848l-.907-.181c-.073-.036-.218-.073-.218-.145s.181-.145.29-.145c4.937.4 9.656 1.525 13.794 4.465a13.625 13.625 0 0 1 6.135 10.563 38.561 38.561 0 0 1-.255 9.764z" transform="translate(-421.687 3.064) translate(426.183 -3.064) translate(-30.582 -8.415)"/>
                <path fill="url(#ypk3yqx63f)" d="M39.12 32.746a4.306 4.306 0 0 0-5.009-1.125 10.771 10.771 0 0 0-3.05 2.579 14.386 14.386 0 0 0-2.251-2.214c-.653-.327-3.231-.726-4.61.109a4.72 4.72 0 0 0-2.432 4.247c.181 1.779 1.67 3.376 2.977 4.61l1.525 1.379a43.849 43.849 0 0 0 4.646 3.412l.617.4.581-.472a33.942 33.942 0 0 0 6.461-6.643c.98-1.416 1.96-3.34 1.307-5.082a3.811 3.811 0 0 0-.762-1.2z" transform="translate(-421.687 3.064) translate(426.183 -3.064) translate(-13.861 -19.903)"/>
                <path fill="url(#6463w9bzwc)" d="M31.288 35.84a5.009 5.009 0 0 0-2.105-.653 3.725 3.725 0 0 0-3.92 3.957c.181 1.6 1.416 2.94 2.541 3.993L29.11 44.3a37.678 37.678 0 0 0 3.993 2.94l.544.327a4.7 4.7 0 0 1-.073-1.27l-.074-1.346c-.073-1.125-.109-2.214-.181-3.34a30.455 30.455 0 0 0-.181-3.231 3.412 3.412 0 0 0-1.85-2.54z" transform="translate(-421.687 3.064) translate(426.183 -3.064) translate(-16.084 -22.416)"/>
            </g>
        </g>
        <g>
            <g>
                <g>
                    <path fill="url(#9xn54g7thg)" d="M15.04 7.771a.947.947 0 0 0 .28-1.356 1.1 1.1 0 0 0-1.335-.581.947.947 0 0 0-.28 1.356 1.1 1.1 0 0 0 1.335.581z" transform="translate(-421.687 3.064) translate(421.687 60.984) translate(-10.63 -4.524)"/>
                    <path fill="url(#vkt96a8m4h)" d="M5.2 7.771a.964.964 0 0 0 .28-1.356 1.124 1.124 0 0 0-1.36-.581.964.964 0 0 0-.28 1.356 1.116 1.116 0 0 0 1.36.581z" transform="translate(-421.687 3.064) translate(421.687 60.984) translate(-2.896 -4.524)"/>
                    <path fill="url(#wu21ia69ji)" d="M52.085 57.734a.947.947 0 0 0-.28 1.356 1.124 1.124 0 0 0 1.356.581.947.947 0 0 0 .28-1.356 1.124 1.124 0 0 0-1.356-.581z" transform="translate(-421.687 3.064) translate(421.687 60.984) translate(-40.526 -45.25)"/>
                    <path fill="url(#6bmnym7c8j)" d="M42.385 57.734a.947.947 0 0 0-.28 1.356 1.124 1.124 0 0 0 1.356.581.947.947 0 0 0 .28-1.356 1.124 1.124 0 0 0-1.356-.581z" transform="translate(-421.687 3.064) translate(421.687 60.984) translate(-32.915 -45.25)"/>
                    <path fill="url(#ujvdqi4aik)" d="M66.84 11.171a.947.947 0 0 0 .28-1.356 1.1 1.1 0 0 0-1.335-.581.947.947 0 0 0-.28 1.356 1.1 1.1 0 0 0 1.335.581z" transform="translate(-421.687 3.064) translate(421.687 60.984) translate(-51.277 -7.192)"/>
                    <path fill="url(#9dj5bml6ql)" d="M14.524 20.353c-.409.581.237 2.713.344 3.553s-.646.818-1.163.883c-1.1.129-1.636-.022-2.153-1.077a15.252 15.252 0 0 1-.624-3.832c-.538-.926-2.132.3-1.809 1.184-.022.667.883 2.907.366 3.316a1.9 1.9 0 0 1-1.033.409c-2.218.28-2.541-1.378-2.993-3.187-.538-3.768-3.789-3.014-3.659-2.282l.237 1.012c-.9 1.292-2.476 2.153-1.895 3.962s3.531 2 4.5.646c.108-.151.3-.151.366 0a3.75 3.75 0 0 0 3.445 1.27 3.983 3.983 0 0 0 2.39-1.033c.538.883 1.83 1.033 2.864 1.033h.043a4.8 4.8 0 0 0 2.024-.581 2.075 2.075 0 0 0 .84-2.067 8.231 8.231 0 0 1-.28-2.821c.022-.086.215-.129.323-.237s-1.487-1.098-2.133-.151zM2.165 22.528c.28-.56.6-1.012.861-1.507.883 0 .883 1.292 1.1 1.916.537 1.636-3.016 2.368-1.961-.409z" transform="translate(-421.687 3.064) translate(421.687 60.984) translate(-.016 -14.695)"/>
                    <path fill="url(#dcj9d5sopm)" d="M106.262 2.039a.947.947 0 0 0 .28-1.356A1.1 1.1 0 0 0 105.185.1a.972.972 0 0 0-.28 1.378 1.089 1.089 0 0 0 1.357.561z" transform="translate(-421.687 3.064) translate(421.687 60.984) translate(-82.194 -.019)"/>
                    <path fill="url(#a3fwq3grin)" d="M103.462 11.083a.967.967 0 0 0 .28-1.378 1.1 1.1 0 0 0-1.356-.581.967.967 0 0 0-.28 1.378 1.08 1.08 0 0 0 1.356.581z" transform="translate(-421.687 3.064) translate(421.687 60.984) translate(-79.997 -7.104)"/>
                    <path fill="url(#0j3pce521o)" d="M112.185 9.224a.967.967 0 0 0-.28 1.378 1.085 1.085 0 0 0 1.335.581.985.985 0 0 0 .28-1.378 1.085 1.085 0 0 0-1.335-.581z" transform="translate(-421.687 3.064) translate(421.687 60.984) translate(-87.687 -7.182)"/>
                    <path fill="url(#o9pmplv3pp)" d="M87.711 11.088c-.409.581.237 2.713.366 3.553s-.646.818-1.184.883c-1.184.129-1.292-.947-1.4-1.787-.237-1.981-.474-3.876-.732-5.835a1.111 1.111 0 0 0-1.916-.646 1.593 1.593 0 0 0-.474.5c-.022.065 0 .194.086.194s.3.065.3.151c.646 1.421.818 6.782 1.679 8.074a3.027 3.027 0 0 0 2.5.8 4.823 4.823 0 0 0 2.024-.581 2.075 2.075 0 0 0 .84-2.067 8.231 8.231 0 0 1-.28-2.821c.022-.086.215-.129.323-.237s-1.486-1.128-2.132-.181z" transform="translate(-421.687 3.064) translate(421.687 60.984) translate(-64.634 -5.43)"/>
                    <path fill="url(#g5sp7aro2q)" d="M142.16 7.771a.947.947 0 0 0 .28-1.356 1.107 1.107 0 0 0-1.335-.581.964.964 0 0 0-.28 1.356 1.1 1.1 0 0 0 1.335.581z" transform="translate(-421.687 3.064) translate(421.687 60.984) translate(-110.384 -4.524)"/>
                    <path fill="url(#9nhdn9pq2r)" d="M151.84 7.771a.947.947 0 0 0 .28-1.356 1.1 1.1 0 0 0-1.335-.581.947.947 0 0 0-.28 1.356 1.1 1.1 0 0 0 1.335.581z" transform="translate(-421.687 3.064) translate(421.687 60.984) translate(-117.976 -4.524)"/>
                    <path fill="url(#kptvxxmqns)" d="M155.964 20.6a4.3 4.3 0 0 0-5.189.065 5.967 5.967 0 0 0-1.658 3.488 1.226 1.226 0 0 1-.108.452 1.679 1.679 0 0 1-.56-.667 9.215 9.215 0 0 1-.5-2.971c-.538-.947-2 .258-1.809 1.163a18.192 18.192 0 0 1 .388 1.852c.043.5-.689.6-1.12.667-2.2.28-2.519-1.378-2.993-3.187-.5-3.789-3.746-3.014-3.617-2.3l.237 1.012c-.883 1.313-2.476 2.153-1.895 3.983s3.531 2 4.5.646c.108-.151.3-.151.366 0a3.731 3.731 0 0 0 3.445 1.27 3.035 3.035 0 0 0 2.3-.689c.258-.237.323.151.624.366a3.509 3.509 0 0 0 .947.452 2.928 2.928 0 0 0 1.012 1.335.108.108 0 0 0 .194-.086 2.821 2.821 0 0 0-.151-.883c-.022-.065-.108-.28.108-.215 2.562.5 6.222.344 6.933-2.261a3.243 3.243 0 0 0-1.454-3.492zm-16.816 1.83c.28-.56.6-1.012.861-1.507.883 0 .883 1.292 1.1 1.916.517 1.615-3.036 2.347-1.959-.431zm11.282 2.65c-.086 0-.108-.129-.086-.215.215-1.421 1.012-3.789 2.864-3.7a2.139 2.139 0 0 1 2.067 1.658c.538 2.713-3.4 2.5-4.844 2.239z" transform="translate(-421.687 3.064) translate(421.687 60.984) translate(-107.523 -14.577)"/>
                    <path fill="url(#85rpcoxh3t)" d="M242.794 22.613a7.083 7.083 0 0 0-.409-1.787 3.049 3.049 0 0 0-3.7-1.959c-3.294 1.163-1.227 5.986 2.067 5a.108.108 0 0 1 .108.108c-.3.667-3.036.818-3.725.84-.84.108-1.464-.646-1.938-1.636a7.537 7.537 0 0 1-.3-1.033c-.065-.366-.344-1.292.237-1.292.129.022.151-.108.108-.172a1.374 1.374 0 0 0-2.218.129c-.474.732.431 3.7.689 4.931.172.8.409 2.347-.84 2.325-.344 0-.624-.28-.947-.3s-.065.108 0 .172c.732 1.249 2.519 1.722 3.4.3a4.308 4.308 0 0 0 .258-2.368 2.2 2.2 0 0 0 1.572.366c2.365-.137 5.982-.093 5.638-3.624zm-1.938.215a2.857 2.857 0 0 1-1.464-.56 1.809 1.809 0 0 1-.28-2.282c.3-.474.99 0 1.184.323a5.469 5.469 0 0 1 .775 2.368.194.194 0 0 1-.237.151z" transform="translate(-421.687 3.064) translate(421.687 60.984) translate(-181.865 -14.694)"/>
                    <path fill="url(#goj8zrk83u)" d="M260.162 7.083a.967.967 0 0 0 .28-1.378 1.1 1.1 0 0 0-1.356-.581.947.947 0 0 0-.28 1.356 1.115 1.115 0 0 0 1.356.603z" transform="translate(-421.687 3.064) translate(421.687 60.984) translate(-202.958 -3.965)"/>
                </g>
                <path fill="none" d="M27.562 88.193Q26.249 87.44 25 86.6a17.547 17.547 0 0 0 2.562 1.593z" transform="translate(-421.687 3.064) translate(421.687 60.984) translate(-19.621 -67.958)"/>
                <path fill="url(#gikny8huvv)" d="M24.3 86.2l.129.086-.043-.043z" transform="translate(-421.687 3.064) translate(421.687 60.984) translate(-19.071 -67.645)"/>
                <g>
                    <path fill="url(#utar29fz4w)" d="M17.3 73.758a30.3 30.3 0 0 0 9.517-1.358l-2.411 2.8a66.95 66.95 0 0 0 22.8 4.048 44.5 44.5 0 0 0 12.144-1.787A38.368 38.368 0 0 0 70.438 72.1a38.691 38.691 0 0 1-10.916 5.942 45.409 45.409 0 0 1-12.273 2.433 61.083 61.083 0 0 1-12.552-.56 79.382 79.382 0 0 1-11.153-2.5l-.065 3.725a29.552 29.552 0 0 0-6.179-7.382z" transform="translate(-421.687 3.064) translate(421.687 60.984) translate(3.721 15.52) translate(-17.3 -72.1)"/>
                    <path fill="url(#c0css64emx)" d="M57.089 84.551a51.9 51.9 0 0 0 10.744-4.5 38.755 38.755 0 0 1-8.311 4.091 45.409 45.409 0 0 1-12.273 2.433 61.084 61.084 0 0 1-12.552-.56 79.385 79.385 0 0 1-11.153-2.476l-.065 3.725A29.457 29.457 0 0 0 17.3 79.9c0-.022 21.531 9.56 39.789 4.651z" opacity="0.67" transform="translate(-421.687 3.064) translate(421.687 60.984) translate(3.721 15.52) translate(-17.3 -78.22)"/>
                </g>
            </g>
        </g>
    </g>
</svg>
