<svg xmlns="http://www.w3.org/2000/svg" xmlns:xlink="http://www.w3.org/1999/xlink" width="326.803" height="241.269" viewBox="0 0 326.803 241.269">
    <defs>
        <linearGradient id="linear-gradient" x1=".591" x2=".591" y1="-.433" y2=".567" gradientUnits="objectBoundingBox">
            <stop offset="0" stop-color="gray" stop-opacity=".251"/>
            <stop offset=".54" stop-color="gray" stop-opacity=".122"/>
            <stop offset="1" stop-color="gray" stop-opacity=".102"/>
        </linearGradient>
        <linearGradient id="linear-gradient-2" x1=".574" x2=".574" y1="-.427" y2=".573" xlink:href="#linear-gradient"/>
        <style>
            .cls-1,.cls-5{fill:#067d62}.cls-1,.cls-4,.cls-7{opacity:.1}.cls-3{fill:#fff}.cls-6{fill:#3f3d56}.cls-8{fill:#fbbebe}.cls-10{fill:#cf6f80}.cls-13{fill:#9d9cb5}.cls-14{fill:none;stroke:#535461;stroke-miterlimit:10;stroke-width:2px}
        </style>
    </defs>
    <g id="Artwork_8" transform="translate(.484)">
        <g id="Group_474">
            <path id="Path_746" d="M74.9 338.2h28.77v39.2H76.993c-.057.4-.142.822-.2 1.219h26.871v31.6l-.142-.057-2.268-.964-.482-.227-2.268-1.134-.794-.425a47.17 47.17 0 0 1-11.31-8.787l-.283-.284-1.332-1.53-.482-.567c-.51-.624-1.02-1.276-1.5-1.927l-.2-.283a41.865 41.865 0 0 1-4.875-8.815l-.113-.283c-.4-.992-.737-1.984-1.049-3.033-.142-.425-.255-.85-.368-1.3l-.113-.4C74.5 373.943 74.3 367.4 74.3 360.9v-2.268q.028-3.968.085-7.937l.057-2.041q.057-2.608.17-5.215c.028-.482.028-.964.057-1.446s.028-.567.057-.822q.056-1.497.174-2.971z" class="cls-1" transform="translate(-53.381 -244.18)"/>
            <path id="Path_747" d="M137.988 133.827H122.2a120.114 120.114 0 0 1 8.39-11.536c2.353-2.891 4.819-5.7 7.4-8.39z" class="cls-1" transform="translate(-87.704 -81.611)"/>
            <path id="Path_748" d="M105.385 188.4v41.242H76.7c0-.113.028-.255.028-.368l.085-.964c.028-.368.057-.765.113-1.134s.085-.822.113-1.247.085-.822.113-1.247.085-.822.142-1.219.085-.822.142-1.219l.142-1.02.2-1.446a1.361 1.361 0 0 1 .028-.227 98.9 98.9 0 0 1 2.1-10.346 76.644 76.644 0 0 1 3.571-10.488 78.771 78.771 0 0 1 5.355-10.317z" class="cls-1" transform="translate(-55.101 -135.867)"/>
            <path id="Path_749" d="M202.1 95.852v39.2h61.452v-39.2zm0 40.42v33.674l1.049.2 1.417.255h.283l.567.085 1.417.17.68.057h.539l.879.057h4.479l.964-.085.935-.085.652-.085a56.433 56.433 0 0 0 7.795-1.644c5.726-1.587 11.338-3.827 17.064-5.471 7.4-2.126 15.59-3.146 22.733-.567v-26.561zM263.552 52.2V-.01A78.941 78.941 0 0 0 243.6 2.342c-15.561 3.912-29.536 12.387-41.5 23.215V52.2h3.09v1.22h-3.09v41.214h61.452V53.392H217.86v-1.219zm78.941-17.63a25.65 25.65 0 0 1-11.14-3.231c-6.6-3.6-11.9-9.155-17.8-13.832A81.563 81.563 0 0 0 270.44.386V52.2h87.7l.227-.227zm7.993-1.417l8.475 9.3V30.687a33.917 33.917 0 0 0-8.475 2.438zm8.475 145.155v-42.036h-18.084l-.142-.539.142.539h-70.465v30.386l1.984 1.559 2.1 1.757.709.567 1.02.85 2.069 1.644 1.049.794a142.328 142.328 0 0 0 17.457 11.424c1.361.765 2.749 1.5 4.138 2.211l2.778 1.389q2.1 1.02 4.252 1.984a156.07 156.07 0 0 0 41.384 12.047q4.762.709 9.552 1.105v-25.681h.057zM270.412 53.392v41.242h88.55V53.392zm0 42.433v39.23h88.55v-39.2zm95.409-65.194v13.123l10.8-11.877q-5.357-.879-10.8-1.247zm0 65.222v39.2h86.112v-39.2zm85.8 85.574l.312-45.154h-86.112v68.2a155.117 155.117 0 0 0 16.639-.2h.085q3.968-.255 7.908-.737h.057a145.268 145.268 0 0 0 40.59-10.856m37.415-90.392l-1.02-2.268c-.652-1.417-1.3-2.806-2.013-4.167h-6.718v39.2h16.979c-.028-11.111-2.835-22.449-7.256-32.767zm-9.722 33.986v38.833a55.926 55.926 0 0 0 11.735-15.817 54.877 54.877 0 0 0 5.244-23.016zm0-51.843v10.2h6.094a110.869 110.869 0 0 0-6.094-10.202zM400.4 38.34l-1.361-.51a122.512 122.512 0 0 0-14.539-4.365l-16.553 18.169-.312.34.227.227h58.873A125.821 125.821 0 0 0 400.4 38.34zm28.062 15.051H367.04l-1.219 1.109v40.134h86.112V75.189a122.6 122.6 0 0 0-23.47-21.8z" class="cls-1" transform="translate(-149.453 .015)"/>
            <path id="Path_750" d="M105.385 261.8v20.437H76.7c0-.113.028-.255.028-.368l.085-.964c.028-.368.057-.765.113-1.134s.085-.822.113-1.247.085-.822.113-1.247.085-.822.142-1.219.085-.822.142-1.219l.142-1.02.2-1.446a1.363 1.363 0 0 1 .028-.227A98.9 98.9 0 0 1 79.9 261.8z" class="cls-1" transform="translate(-55.101 -188.689)"/>
            <path id="Path_751" d="M74.9 338.2h28.77v39.2H76.993c-.057.4-.142.822-.2 1.219h26.871v31.6l-.142-.057-2.268-.964-.482-.227-2.268-1.134-.794-.425a47.17 47.17 0 0 1-11.31-8.787l-.283-.284-1.332-1.53-.482-.567c-.51-.624-1.02-1.276-1.5-1.927l-.2-.283a41.865 41.865 0 0 1-4.875-8.815l-.113-.283c-.4-.992-.737-1.984-1.049-3.033-.142-.425-.255-.85-.368-1.3l-.113-.4C74.5 373.943 74.3 367.4 74.3 360.9v-2.268q.028-3.968.085-7.937l.057-2.041q.057-2.608.17-5.215c.028-.482.028-.964.057-1.446s.028-.567.057-.822q.056-1.497.174-2.971z" class="cls-1" transform="translate(-53.381 -244.18)"/>
            <path id="Path_752" d="M223.727 179.062v35.318H202.1v-35.318h3.09V167.1h12.67v11.962z" class="cls-1" transform="translate(-145.788 -120.529)"/>
            <path id="Rectangle_11" d="M0 0H21.627V39.21H0z" class="cls-1" transform="translate(56.313 94.315)"/>
            <path id="Path_753" d="M202.1 480.8h21.627v32.6a56.008 56.008 0 0 1-7.795 1.644l-.652.085-.935.085-.964.085h-4.421l-.879-.057h-.539l-.68-.057-1.417-.17-.567-.085h-.283l-1.417-.227-1.049-.2z" class="cls-1" transform="translate(-145.788 -346.669)"/>
            <path id="Rectangle_12" d="M0 0H17.829V39.499H0z" class="cls-1" transform="translate(193.33 54.269)"/>
            <path id="Path_754" d="M531.65 338.2v39.2H443.1v-16.892h47.166v9.977h23.526V338.2z" class="cls-1" transform="translate(-319.973 -243.885)"/>
            <path id="Path_755" d="M531.977 521.474h-.283v25.737q-4.79-.4-9.552-1.105a156.255 156.255 0 0 1-41.412-12.047q-5.7-2.579-11.168-5.612a142.817 142.817 0 0 1-17.462-11.423q-2.1-1.587-4.11-3.26l-2.806-2.324-1.984-1.559v-30.442h70.437l-.142-.539.142.539h18.056v42.036z" class="cls-1" transform="translate(-320.048 -345.712)"/>
            <path id="Path_756" d="M890.222 147.871H878.6v-3.628h5.215V133.5l1.361.51v10.233h5.074z" class="cls-1" transform="translate(-633.209 -96.202)"/>
            <path id="Path_757" d="M847.331 229.642H779.7v-39.485h3v29.2h13.7v-17.29h11.338V188.4h11.621v13.662h11.31v17.29h16.7z" class="cls-1" transform="translate(-563.332 -135.867)"/>
            <path id="Path_758" d="M779.7 338.2v39.2h67.66v-39.2zm86 85.375l.085-31.038h-18.454v-13.889H779.7v68.17a155.122 155.122 0 0 0 16.638-.2h.085q3.968-.255 7.908-.737h.057a145.269 145.269 0 0 0 40.59-10.856" class="cls-1" transform="translate(-563.332 -244.679)"/>
            <path id="Path_759" d="M1108.891 480.8h15.788a54.449 54.449 0 0 1-5.244 23.016 55.141 55.141 0 0 1-11.735 15.817v-24.944h1.191z" class="cls-1" transform="translate(-798.361 -346.715)"/>
            <path id="Path_760" d="M1127.688 393.667H1111.9V360.9h8.532c4.422 10.318 7.256 21.656 7.256 32.767z" class="cls-1" transform="translate(-801.37 -260.204)"/>
            <path id="Rectangle_13" d="M0 0H9.552V12.384H0z" class="cls-1" transform="translate(201.563 65.186)"/>
            <path id="Rectangle_14" d="M0 0H9.552V2.852H0z" class="cls-1" transform="translate(201.563 90.551)"/>
            <path id="Rectangle_15" d="M0 0H9.552V8.319H0z" class="cls-1" transform="translate(201.563 94.518)"/>
            <path id="Rectangle_16" d="M0 0H9.552V12.384H0z" class="cls-1" transform="translate(201.563 115.784)"/>
            <path id="Rectangle_17" d="M0 0H9.552V12.384H0z" class="cls-1" transform="translate(201.563 141.097)"/>
            <path id="Path_761" d="M731.281 605.024v2.891H721.7V595.5h9.552z" class="cls-1" transform="translate(-520.137 -429.118)"/>
            <path id="Path_762" d="M731.352 686.1v9.552q-4.79-.4-9.552-1.106V686.1z" class="cls-1" transform="translate(-520.209 -494.371)"/>
            <path id="Rectangle_18" d="M0 0H40.959V0.91H0z" class="cls-1" transform="translate(123.509 132.331)"/>
            <path id="Rectangle_19" d="M0 0H40.959V3.486H0z" class="cls-1" transform="translate(123.509 134.408)"/>
            <path id="Rectangle_20" d="M0 0H40.959V5.607H0z" class="cls-1" transform="translate(123.509 149.093)"/>
            <path id="Path_763" d="M489.146 593.5v5.612h-32.03q-2.1-1.588-4.11-3.26l-2.806-2.324z" class="cls-1" transform="translate(-324.696 -427.608)"/>
            <path id="Path_764" d="M550.841 653.6v5.612h-3.373q-5.7-2.579-11.168-5.612z" class="cls-1" transform="translate(-386.587 -470.91)"/>
            <path id="Rectangle_21" d="M0 0H8.05V8.061H0z" class="cls-1" transform="translate(234.194 98.264)"/>
            <path id="Rectangle_22" d="M0 0H8.05V8.061H0z" class="cls-1" transform="translate(62.077 61.235)"/>
            <path id="Rectangle_23" d="M0 0H8.05V8.061H0z" class="cls-1" transform="translate(62.077 79.68)"/>
            <path id="Rectangle_24" d="M0 0H8.05V8.061H0z" class="cls-1" transform="translate(62.077 98.153)"/>
            <path id="Rectangle_25" d="M0 0H8.05V8.061H0z" class="cls-1" transform="translate(62.077 116.625)"/>
            <path id="Rectangle_26" d="M0 0H8.05V8.061H0z" class="cls-1" transform="translate(62.077 135.07)"/>
            <path id="Rectangle_27" d="M0 0H8.05V8.061H0z" class="cls-1" transform="translate(62.077 153.543)"/>
            <path id="Rectangle_28" d="M0 0H8.05V8.061H0z" class="cls-1" transform="translate(263.789 98.264)"/>
            <path id="Rectangle_29" d="M0 0H8.05V8.061H0z" class="cls-1" transform="translate(234.194 117.855)"/>
            <path id="Rectangle_30" d="M0 0H8.05V8.061H0z" class="cls-1" transform="translate(263.789 117.855)"/>
            <path id="Rectangle_31" d="M0 0H8.05V8.061H0z" class="cls-1" transform="translate(234.194 137.474)"/>
            <path id="Rectangle_32" d="M0 0H8.05V8.061H0z" class="cls-1" transform="translate(263.789 137.474)"/>
            <path id="Rectangle_33" d="M0 0H8.05V8.061H0z" class="cls-1" transform="translate(234.194 157.064)"/>
            <path id="Rectangle_34" d="M0 0H8.05V8.061H0z" class="cls-1" transform="translate(263.789 157.064)"/>
            <path id="Rectangle_35" d="M0 0H8.05V8.061H0z" class="cls-1" transform="translate(234.194 176.683)"/>
            <path id="Rectangle_36" d="M0 0H8.05V8.061H0z" class="cls-1" transform="translate(263.789 176.683)"/>
            <path id="Path_765" d="M838.4 707.516V702.3h8.05v4.479z" class="cls-1" transform="translate(-604.206 -506.553)"/>
            <path id="Path_766" d="M80.6 298.3v4.62h27.58v-4.62zm2.749 4.337h-2.267v-4.025h2.268zm2.749 0h-2.267v-4.025H86.1zm2.749 0h-2.266v-4.025h2.268zm2.749 0H89.33v-4.025h2.27zm2.749 0H92.08v-4.025h2.268zm2.749 0h-2.265v-4.025H97.1zm2.749 0h-2.264v-4.025h2.268zm2.749 0h-2.268v-4.025h2.276zm2.749 0h-2.268v-4.025h2.268zm2.749 0h-2.268v-4.025h2.268z" class="cls-1" transform="translate(-57.896 -214.914)"/>
            <path id="Path_767" d="M80.6 345.7v4.62h27.58v-4.62zm2.749 4.337h-2.267v-4.053h2.268zm2.749 0h-2.267v-4.053H86.1zm2.749 0h-2.266v-4.053h2.268zm2.749 0H89.33v-4.053h2.27zm2.749 0H92.08v-4.053h2.268zm2.749 0h-2.265v-4.053H97.1zm2.749 0h-2.264v-4.053h2.268zm2.749 0h-2.268v-4.053h2.276zm2.749 0h-2.268v-4.053h2.268zm2.749 0h-2.268v-4.053h2.268z" class="cls-1" transform="translate(-57.896 -249.065)"/>
            <path id="Path_768" d="M80.6 393.1v4.62h27.58v-4.62zm2.749 4.309h-2.267v-4.025h2.268zm2.749 0h-2.267v-4.025H86.1zm2.749 0h-2.266v-4.025h2.268zm2.749 0H89.33v-4.025h2.27zm2.749 0H92.08v-4.025h2.268zm2.749 0h-2.265v-4.025H97.1zm2.749 0h-2.264v-4.025h2.268zm2.749 0h-2.268v-4.025h2.276zm2.749 0h-2.268v-4.025h2.268zm2.749 0h-2.268v-4.025h2.268z" class="cls-1" transform="translate(-57.896 -283.215)"/>
            <path id="Path_769" d="M80.6 440.4v4.62h27.58v-4.62zm2.749 4.308h-2.267v-4.025h2.268zm2.749 0h-2.267v-4.025H86.1zm2.749 0h-2.266v-4.025h2.268zm2.749 0H89.33v-4.025h2.27zm2.749 0H92.08v-4.025h2.268zm2.749 0h-2.265v-4.025H97.1zm2.749 0h-2.264v-4.025h2.268zm2.749 0h-2.268v-4.025h2.276zm2.749 0h-2.268v-4.025h2.268zm2.749 0h-2.268v-4.025h2.268z" class="cls-1" transform="translate(-57.896 -317.294)"/>
            <path id="Path_770" d="M81 487.8c.113.425.227.879.368 1.3v-.992h2.268v4h-1.219l.113.284h25.936V487.8zm5.386 4.308h-2.268v-4.025h2.268zm2.749 0h-2.268v-4.025h2.268zm2.749 0h-2.267v-4.025h2.268zm2.749 0h-2.267v-4.025h2.268zm2.749 0h-2.266v-4.025h2.268zm2.749 0h-2.266v-4.025h2.268zm2.749 0h-2.268v-4.025h2.268zm2.749 0h-2.268v-4.025h2.268zm2.75 0h-2.268v-4.025h2.268z" class="cls-1" transform="translate(-58.182 -351.444)"/>
            <path id="Path_771" d="M103.6 535.1l.227.283h1.5v1.956l.482.567v-2.523h2.268v4.053h-.964l.283.284h17.234v-4.62zm7.2 4.337h-2.268v-4.025h2.268zm2.749 0h-2.268v-4.025h2.268zm2.75 0h-2.268v-4.025h2.269zm2.749 0h-2.268v-4.025h2.268zm2.749 0h-2.267v-4.025h2.27zm2.749 0h-2.268v-4.025h2.268z" class="cls-1" transform="translate(-74.376 -385.523)"/>
            <path id="Path_772" d="M157 582.5l.794.425v-.142h2.268v1.275l.482.227v-1.5h2.268v2.466l.142.057v-2.778z" class="cls-1" transform="translate(-112.64 -419.656)"/>
            <path id="Path_773" d="M384.2 226.633zm-17.456 83.674zm-18.2-42.574l.142.539zm35.656-41.1zM213 184.2v1.219h12.67V184.2zm153.772 126.107zm-18.226-42.574l.142.539zm35.654-41.1zm-17.456 83.674zm-18.2-42.574l.142.539z" class="cls-1" transform="translate(-154.464 -133.449)"/>
            <ellipse id="Ellipse_2" cx="27.608" cy="4.45" class="cls-1" rx="27.608" ry="4.45" transform="translate(217.902 232.369)"/>
            <ellipse id="Ellipse_3" cx="27.608" cy="4.45" class="cls-1" rx="27.608" ry="4.45" transform="translate(95.386 227.947)"/>
            <path id="Path_774" fill="url(#linear-gradient)" d="M427.707 303.268l-.057-.085c-.425-.425-5.811-8.022-5.811-8.022s-.283-.85-.737-1.956a1.956 1.956 0 0 0 .34-.624 2.194 2.194 0 0 0 .057-.283c0-.028.028-.057.028-.085a2.154 2.154 0 0 0-.028-1.162l-.113.283a4.735 4.735 0 0 0-.425-.935c-.709-1.219-1.729-2.268-2.494-3.458a9.381 9.381 0 0 1-1.275-6.236v.34a9.685 9.685 0 0 1 .17-1.276 8.854 8.854 0 0 1 .482-1.389c.68-1.559 1.758-2.891 2.438-4.45a8.417 8.417 0 0 0 .51-1.616 9.1 9.1 0 0 0 .255-2.835 4.528 4.528 0 0 1-.057.68 9.24 9.24 0 0 0-2.608-6.151c-2.324-2.324-5.641-3.231-8.815-3.713a8.077 8.077 0 0 1-3.713-1.417 6.456 6.456 0 0 0-4.223-.822 6.973 6.973 0 0 0-4.309 2.126c-1.5 1.672-2.154 4.025-3.94 5.414a16.919 16.919 0 0 1-3.657 1.814 4.96 4.96 0 0 0-2.835 2.664v.113c-.425 1.474.4 2.976.794 4.422a19.551 19.551 0 0 1 .482 4.677c.028 1.559.057 3.827.028 5.754 0 .765-.028 1.531-.085 2.268a11.868 11.868 0 0 0-1.956.794c-.624.425-3 2.976-3 2.976l-4.653 17.745.057.085-.057.255.227-.057a24.9 24.9 0 0 0 4.734 4l.2 3.486a6.154 6.154 0 0 0 3.458 4.932c.085 1.219.312 6.123-.765 8.078a9.071 9.071 0 0 0-.992 4.62 15.654 15.654 0 0 1-.057 4.507 7.369 7.369 0 0 0-.057 3.175v.935c0 3.146.028 13.209 0 14.371s0 21.259 0 21.259-.255 9.949-1.105 12.642-.624 11.622-.624 11.622-.539 10.629 1.332 12.727c0 .085-.028.2-.028.283v.142c-.028.794.142 1.672.822 1.927a12.27 12.27 0 0 1 3.656 2.636 6.677 6.677 0 0 0 5.1 1.332 38.441 38.441 0 0 1 5.074-.227s1.049-.2.709-1.5a11.694 11.694 0 0 0-1.644-2.92l.312.085h.539c.709-.057 3.373 1.162 3.827 1.984s2.154 1.445 3.4 1.587a25.2 25.2 0 0 0 4.223-.255 15.523 15.523 0 0 0 2.353-.425c.369-.142.454-.6.34-1.105a2.891 2.891 0 0 0-.992-1.644 7.79 7.79 0 0 1-1.5-1.9l-.113-.2c.794-.765 2.211-3.231 2.665-3.742s-.851-23.328-.851-23.328v-11.48l2.126-10.771 1.474-5.7 1.275-8.617s2.211-10.062 1.531-11.026c0-.028-.567-10.374-1.162-12.84a27.476 27.476 0 0 1-.028-6.037 1.191 1.191 0 0 0 .283-1.247 2.588 2.588 0 0 0-.17-.425v-.142a19.524 19.524 0 0 1 3.827-1.3c2.126-.425 1.587-1.5 1.587-1.5l.794-1.5c.312-.567.057-5.584 0-6.009l-.312-2.126c.68-.482 1.559-1.077 2.523-1.644 1.783-1.112 1.386-2.246 1.216-2.558zm-27.551 71.883s-1.587 4.053-.964 5.074-.113 4.875-.113 4.875l-.539 5.7s-1.474 10.573-.964 13.067a87.664 87.664 0 0 1 .624 10.2l-.113.057h-.057c.255-.964.142-2.891-1.077-6.775l-.113-16.072s-.2-18.566 1.276-20.635a15.367 15.367 0 0 0 1.984-5.584s-.312 5.074-.539 6.434a9.712 9.712 0 0 0 .595 3.659zm-2.948 39.91v.085l-.085-.113z" transform="translate(-273.068 -188.191)"/>
            <path id="Path_775" d="M461.194 818.822a28.817 28.817 0 0 1-6.491.708c-1.219-.142-2.891-.765-3.345-1.615s-3.09-2.069-3.8-1.984a2.548 2.548 0 0 1-.85-.113 10.465 10.465 0 0 1-1.417-.539 2.635 2.635 0 0 1 .028-1.077l.057-.2a1.87 1.87 0 0 1 .964-1.049l.113-.057.624-.2c2.239-.425 11.423.425 11.423.425l.624 1.049a8.534 8.534 0 0 0 1.5 1.9 2.891 2.891 0 0 1 .964 1.672c.06.484-.025.938-.394 1.08z" class="cls-3" transform="translate(-320.989 -585.574)"/>
            <path id="Path_776" d="M461.189 820.842a28.653 28.653 0 0 1-6.491.709c-1.247-.142-2.891-.794-3.345-1.616a6.806 6.806 0 0 0-3.8-1.984 6.452 6.452 0 0 1-2.268-.652 2.3 2.3 0 0 1 .454-1.9l1.417.992s3.8 1.19 4.507 2.268a4.615 4.615 0 0 0 3.826 1.814 37.6 37.6 0 0 0 6.038-.709c.115.483.058.936-.338 1.078z" class="cls-4" transform="translate(-320.983 -587.595)"/>
            <path id="Path_777" d="M417.077 820.425a37.722 37.722 0 0 0-5.017.227 6.4 6.4 0 0 1-5.046-1.332 11.516 11.516 0 0 0-3.6-2.664c-.68-.255-.85-1.134-.822-1.956v-.142a7.943 7.943 0 0 1 .227-1.531l11.026-.227.964 1.3.142.2.567.794.6.85a11.7 11.7 0 0 1 1.616 2.948c.392 1.334-.657 1.533-.657 1.533z" class="cls-3" transform="translate(-290.241 -585.732)"/>
            <path id="Path_778" d="M417.077 825.226a37.753 37.753 0 0 0-5.017.227 6.4 6.4 0 0 1-5.046-1.332 11.093 11.093 0 0 0-3.6-2.664c-.68-.255-.85-1.134-.822-1.956a6.371 6.371 0 0 1 3.09 1.474c.652.822 2.381 2.919 4.535 3.061a67.839 67.839 0 0 0 7.568-.34c.341 1.331-.708 1.53-.708 1.53z" class="cls-4" transform="translate(-290.241 -590.533)"/>
            <path id="Path_779" d="M415.752 813.227c-.142.936-.51 1.19-.794 1.247h-.312s-9.892 2.182-11.9.425l-.142-.142a7.941 7.941 0 0 1 .227-1.531l11.022-.226.964 1.3a1.87 1.87 0 0 1 .964-1.049z" class="cls-4" transform="translate(-290.238 -585.875)"/>
            <path id="Path_780" d="M462.042 814.073q-.34.383-.51.34c-.113-.028-4.79-.935-6.151-.312s-5.953.113-5.953.113 0-.538-.028-1.417l.624-.2c2.239-.425 11.423.425 11.423.425z" class="cls-4" transform="translate(-323.957 -585.503)"/>
            <path id="Path_781" d="M431.566 554.926l-1.247 8.645-1.446 5.726-2.1 10.856v11.48s1.361 22.846.822 23.47-2.494 4.167-3.033 3.968-4.79-.936-6.151-.312-5.952.113-5.952.113-.113-8.872-.624-11.366.935-13.152.935-13.152l.51-5.726s.737-3.855.113-4.9.935-5.1.935-5.1a10.316 10.316 0 0 1-.51-3.657c.227-1.361.51-6.463.51-6.463a16 16 0 0 1-1.956 5.641c-1.446 2.1-1.276 20.749-1.276 20.749l.113 16.157c2.608 8.56 0 7.71 0 7.71s-9.892 2.183-11.9.425-1.417-12.954-1.417-12.954-.2-8.957.624-11.678 1.105-12.727 1.105-12.727-.057-20.04 0-21.372 0-11.281 0-14.456v-.935l1.19-2.976 14.173-1.786h6.774s10.2 2.409 11.253 3.43l.057.057c.681 1.014-1.502 11.133-1.502 11.133z" class="cls-5" transform="translate(-286.906 -390.472)"/>
            <path id="Path_782" d="M456.2 752.3s3.118 7.511 4.592 8.021-4.592-8.021-4.592-8.021z" class="cls-4" transform="translate(-328.813 -542.381)"/>
            <path id="Path_783" d="M460.2 791.3s10.516.51 10.431 1.672S460.2 791.3 460.2 791.3z" class="cls-4" transform="translate(-331.727 -570.326)"/>
            <path id="Path_784" d="M410.5 780.7c.425.4 8.022 1.134 7.4 1.843s-6.774 2.126-6.774 2.126z" class="cls-4" transform="translate(-295.901 -562.731)"/>
            <path id="Path_785" d="M406.1 735c0 .312 1.559 10.006 1.984 10.431s3.855.822 3.855.822z" class="cls-4" transform="translate(-292.723 -529.984)"/>
            <path id="Path_786" d="M418.613 261.64c-1.5 1.672-2.126 4.025-3.883 5.442a18.184 18.184 0 0 1-3.628 1.842 4.841 4.841 0 0 0-2.802 2.776c-.369 1.332.368 2.976.794 4.45a18.433 18.433 0 0 1 .482 4.705c.028 1.587.057 3.855.028 5.782-.057 3-.312 6.151-1.9 8.7 5.754 1.842 11.9 2.1 17.942 2.324a18.072 18.072 0 0 0 3.486-.085 29.874 29.874 0 0 0 2.976-.737 22.757 22.757 0 0 1 5.924-.765 10.02 10.02 0 0 0 2.608-.17 2.567 2.567 0 0 0 1.871-1.644 2.855 2.855 0 0 0-.482-2.239c-.709-1.247-1.7-2.268-2.466-3.486a9.581 9.581 0 0 1-.624-8.617c.68-1.559 1.757-2.92 2.409-4.478a9.439 9.439 0 0 0-1.9-10.006c-2.3-2.353-5.584-3.26-8.7-3.742a7.909 7.909 0 0 1-3.657-1.417 6.3 6.3 0 0 0-4.167-.822 6.831 6.831 0 0 0-4.311 2.187z" class="cls-6" transform="translate(-294.033 -187.055)"/>
            <g id="Group_471" class="cls-7" transform="translate(113.751 83.8)">
                <path id="Path_787" d="M516.245 307.513a9.438 9.438 0 0 0-.709 4.337 9.263 9.263 0 0 1 .709-3.061c.652-1.559 1.757-2.92 2.409-4.479a9.044 9.044 0 0 0 .652-4.11 8.818 8.818 0 0 1-.652 2.863c-.654 1.531-1.729 2.891-2.409 4.45z" transform="translate(-485.037 -300.2)"/>
                <path id="Path_788" d="M411.1 311.272c.028 1.105.028 2.239.028 3.345q0-2.3-.028-4.592a18.7 18.7 0 0 0-.482-4.705 22.673 22.673 0 0 1-.85-2.92c-.255 1.389.454 2.806.85 4.2a19.109 19.109 0 0 1 .482 4.672z" transform="translate(-409.225 -301.776)"/>
                <path id="Path_789" d="M440.88 378.387a10.023 10.023 0 0 1-2.608.17 22.736 22.736 0 0 0-5.9.737 30.1 30.1 0 0 1-2.976.737 17.919 17.919 0 0 1-3.486.085c-5.839-.227-11.763-.482-17.347-2.154a9.606 9.606 0 0 1-.567 1.077c5.754 1.842 11.9 2.1 17.942 2.324a17.9 17.9 0 0 0 3.486-.085 29.257 29.257 0 0 0 2.948-.737 22.732 22.732 0 0 1 5.9-.737 10.027 10.027 0 0 0 2.608-.17 2.514 2.514 0 0 0 1.871-1.644 2.241 2.241 0 0 0-.028-1.191 2.555 2.555 0 0 1-1.843 1.588z" transform="translate(-408 -355.088)"/>
            </g>
            <path id="Path_790" d="M445.386 328.4c-.2.482-1.105 4.535-1.3 4.96s-1.361 7.086-1.446 7.455-7.54-1.559-7.54-1.559l-4.478-3.742L426 330.89s-.142-4.138 3.26-5.471l.709-.227c4.11-.992 3.713-13.492 3.713-13.492l8.447 3.657s-1.559 7.313-1.5 8.7c0 .482.4.765.879.935a6.886 6.886 0 0 0 2.3.255s1.805 2.666 1.578 3.153z" class="cls-8" transform="translate(-307.131 -224.708)"/>
            <path id="Path_791" d="M519.64 417.424l1.19.312s.879 1.361-1.19 2.608a36.117 36.117 0 0 0-3.8 2.664l-6.151 1.871-1.19-3.713 5.726-4.365z" class="cls-5" transform="translate(-366.541 -300.315)"/>
            <path id="Path_792" d="M519.64 417.424l1.19.312s.879 1.361-1.19 2.608a36.117 36.117 0 0 0-3.8 2.664l-6.151 1.871-1.19-3.713 5.726-4.365z" class="cls-4" transform="translate(-366.541 -300.315)"/>
            <path id="Path_793" d="M382.909 430.052L380.5 432.4s4.337 5.017 7.653 5.329 5.471-3.8 5.471-3.8l-2.891-4.535z" class="cls-5" transform="translate(-274.313 -309.395)"/>
            <path id="Path_794" d="M382.909 430.052L380.5 432.4s4.337 5.017 7.653 5.329 5.471-3.8 5.471-3.8l-2.891-4.535z" class="cls-4" transform="translate(-274.313 -309.395)"/>
            <circle id="Ellipse_4" cx="8.333" cy="8.333" r="8.333" class="cls-4" transform="translate(122.793 78.715)"/>
            <circle id="Ellipse_5" cx="8.333" cy="8.333" r="8.333" class="cls-8" transform="translate(122.793 78.101)"/>
            <path id="Path_795" d="M437.576 544.75a26.941 26.941 0 0 0-5.584 1.25c-3.118 1.049-27.551.029-27.891 0v-.935l1.191-2.976 14.172-1.786h6.774s10.2 2.409 11.253 3.43c.056.649.085 1.017.085 1.017z" class="cls-4" transform="translate(-291.43 -389.283)"/>
            <path id="Path_796" d="M445.386 362.073c-.2.482-1.105 4.535-1.3 4.96s-1.361 7.086-1.446 7.455-7.54-1.559-7.54-1.559l-4.478-3.742-4.62-4.62s-.142-4.138 3.26-5.471l8.418 9.694 3.8-10.091a6.887 6.887 0 0 0 2.3.255s1.833 2.637 1.606 3.119z" class="cls-4" transform="translate(-307.131 -258.5)"/>
            <path id="Path_797" d="M416.683 368.028l-8.617-9.921a3.628 3.628 0 0 0-3.43-.255c-1.927.85-4.337 1.5-4.96 1.927a40.759 40.759 0 0 0-2.976 3l7 18.283-3.09 12.047s.482 6.151-.737 8.39a9.211 9.211 0 0 0-.992 4.649 15.86 15.86 0 0 1-.057 4.535 7.57 7.57 0 0 0-.057 3.175s24.774 1.049 27.892 0a26.705 26.705 0 0 1 5.584-1.247s-.567-10.431-1.134-12.925.482-12.047.482-12.047l-.68-10.233 4.053-10.488s-2.211-6.718-4.507-7.4a46.482 46.482 0 0 1-5.045-1.446 18.421 18.421 0 0 0-3.486-.879l-1.361.453z" class="cls-5" transform="translate(-286.123 -257.743)"/>
            <rect id="Rectangle_37" width="30.386" height="19.853" class="cls-4" rx="2.9" transform="rotate(-86.1 140.135 9.128)"/>
            <rect id="Rectangle_38" width="30.386" height="19.853" class="cls-6" rx="2.9" transform="rotate(-86.1 140.115 8.478)"/>
            <path id="Rectangle_39" d="M0 0H26.134V17.296H0z" class="cls-3" transform="rotate(-86.1 139.815 6.783)"/>
            <path id="Rectangle_40" d="M0 0H3.94V14.13H0z" class="cls-4" transform="rotate(-86 133.293 -2.606)"/>
            <path id="Rectangle_41" d="M0 0H2.041V2.242H0z" class="cls-4" transform="rotate(-86.1 146.595 -1.392)"/>
            <path id="Rectangle_42" d="M0 0H2.041V11.477H0z" class="cls-4" transform="rotate(-86.1 138.004 1.914)"/>
            <path id="Rectangle_43" d="M0 0H3.146V11.95H0z" class="cls-6" transform="rotate(-86.1 129.684 -7.412)"/>
            <path id="Rectangle_44" d="M0 0H3.146V11.95H0z" class="cls-4" transform="rotate(-86.1 129.684 -7.412)"/>
            <path id="Path_798" d="M460.367 554s-.113 15.448-4.167 24.292c0 0 4.9-11.678 4.9-12.16s2.721-5.385 1.984-6.831-2.717-5.301-2.717-5.301z" class="cls-4" transform="translate(-328.825 -399.334)"/>
            <path id="Path_799" d="M446.193 279.37a5.81 5.81 0 0 1 .935-3.883 4.79 4.79 0 0 0 3.685 5.045.623.623 0 0 1-.17-.68 19.1 19.1 0 0 0 1.672 2.012 2.219 2.219 0 0 0 2.409.51c.765-.425 1.077-2.069.794-3.231a15.136 15.136 0 0 0-3.486-6.661 4.62 4.62 0 0 0-3.656-1.871 9.281 9.281 0 0 0-4.734.737 12.552 12.552 0 0 0-2.268 1.587l-3.968 3.231a3.767 3.767 0 0 0-.964 1.02 2.778 2.778 0 0 0-.312 1.077 5.726 5.726 0 0 0 2.664 5.414 4.223 4.223 0 0 1 2.523-3.968 1.105 1.105 0 0 1 .4.822l.822-1.5a1.644 1.644 0 0 1 .567-.68c.51-.283 1.162.057 1.587.454s.879.907 1.446.964v-2.211" class="cls-4" transform="translate(-314.415 -194.979)"/>
            <path id="Path_800" d="M446.265 278.335a5.811 5.811 0 0 1 .935-3.883 4.773 4.773 0 0 0 3.713 5.045.623.623 0 0 1-.17-.68 19.069 19.069 0 0 0 1.672 2.013 2.219 2.219 0 0 0 2.409.51c.765-.425 1.077-2.069.794-3.231a15.136 15.136 0 0 0-3.486-6.661 5.584 5.584 0 0 0-1.956-1.5 5.67 5.67 0 0 0-1.7-.34 8.991 8.991 0 0 0-4.734.737 12.726 12.726 0 0 0-2.268 1.587l-3.968 3.231a3.742 3.742 0 0 0-.964 1.02 2.75 2.75 0 0 0-.312 1.077 5.726 5.726 0 0 0 2.664 5.414 4.224 4.224 0 0 1 2.523-3.968 1.106 1.106 0 0 1 .4.822l.822-1.474a1.616 1.616 0 0 1 .567-.68c.51-.283 1.162.057 1.587.453s.879.907 1.446.964v-2.211" class="cls-6" transform="translate(-314.487 -194.251)"/>
            <path id="Path_801" d="M421.9 445.328c-.737-.368-12.784 1.5-12.784 1.5s-1.984-.567-6.775-1.361a6.089 6.089 0 0 1-5.1-5.471l-.538-9.382 1.616-1.417 6.945 4.535a21.076 21.076 0 0 1 0 2.693 2.708 2.708 0 0 0-.227.85.283.283 0 0 0 .227.255c.482.113 6.888 1.162 6.888 1.162s14.853-1.021 18.566 4a3.766 3.766 0 0 1 .652 1.247c.93 3.43-8.819 1.73-9.47 1.389z" class="cls-8" transform="translate(-286.103 -309.321)"/>
            <path id="Path_802" d="M451.848 464.533l-.907.425s-5.329-.142-8.305-1.247a18.782 18.782 0 0 0-6.633-.879s-12.443-2.154-10.516-4.932a.284.284 0 0 0 .227.255c.482.113 6.888 1.162 6.888 1.162s14.853-1.02 18.566 4a3.768 3.768 0 0 1 .68 1.216z" class="cls-4" transform="translate(-306.659 -329.921)"/>
            <path id="Path_803" d="M457.147 423s.737 5.159.794 5.584.312 5.471 0 6.038-.794 1.5-.794 1.5.51 1.105-1.559 1.5a20.389 20.389 0 0 0-4.535 1.672s-5.329-.142-8.277-1.247a18.736 18.736 0 0 0-6.633-.879s-15.788-2.721-9.014-6.009a10.472 10.472 0 0 1 11.565 1.162l7.568-.454s2.806-1.729 3.6-1.559a2.892 2.892 0 0 0 1.616-.255l.057-5.471z" class="cls-8" transform="translate(-306.807 -304.842)"/>
            <path id="Path_804" d="M386.594 378.085l-1.5-.085-4.594 17.857s4.96-1.247 7.086 0 6.037 1.5 6.037 1.5l-1.446-14.229z" class="cls-4" transform="translate(-274.313 -272.433)"/>
            <path id="Path_805" d="M386.594 376.985l-1.5-.085-4.594 17.857s4.96-1.247 7.086 0 6.037 1.5 6.037 1.5l-1.446-14.229z" class="cls-5" transform="translate(-274.313 -271.64)"/>
            <path id="Path_806" d="M515.846 391l2.069.482s5.329 7.653 5.726 8.078-1.984 1.984-2.976 1.984-5.839.567-7.256 1.871-.822-5.272-.822-5.442 1.758-4.309 1.758-4.309z" class="cls-4" transform="translate(-369.388 -281.755)"/>
            <path id="Path_807" d="M515.846 389.9l2.069.453s5.329 7.653 5.726 8.078-1.984 1.984-2.976 1.984-5.839.567-7.256 1.871-.822-5.272-.822-5.442 1.758-4.308 1.758-4.308z" class="cls-5" transform="translate(-369.388 -280.962)"/>
            <g id="Group_472" class="cls-7" transform="translate(121.765 79.536)">
                <path id="Path_808" d="M447.3 285.252a4.2 4.2 0 0 1 0-.652 5.81 5.81 0 0 0-.879 2.126v2.183h-.028v.227a1.135 1.135 0 0 0 0-.227 3.031 3.031 0 0 1-1.389-.935c-.425-.369-1.077-.737-1.587-.453a1.615 1.615 0 0 0-.567.68l-.85 1.474a1.106 1.106 0 0 0-.4-.822 4.223 4.223 0 0 0-2.523 3.968 5.754 5.754 0 0 1-2.693-4.507 5.726 5.726 0 0 0 2.693 5.13 4.223 4.223 0 0 1 2.523-3.968 1.106 1.106 0 0 1 .4.822l.822-1.474a1.615 1.615 0 0 1 .567-.68c.51-.284 1.162.057 1.587.453s.879.907 1.446.964q0-1.077.028-2.183a5.783 5.783 0 0 1 .85-2.126z" transform="translate(-436.377 -284.6)"/>
                <path id="Path_809" d="M471.556 293.461a3.474 3.474 0 0 1 .057-.567v-.794a5.725 5.725 0 0 0-.057 1.361z" transform="translate(-461.573 -289.974)"/>
                <path id="Path_810" d="M491.485 302.523a2.219 2.219 0 0 1-2.409-.51A19.112 19.112 0 0 1 487.4 300a.623.623 0 0 0 .17.68h-.17a18.779 18.779 0 0 0 1.672 1.984 2.219 2.219 0 0 0 2.409.51 2.37 2.37 0 0 0 .935-2.324 2.043 2.043 0 0 1-.931 1.673z" transform="translate(-472.912 -295.635)"/>
                <path id="Path_811" d="M478.485 291.523a4.818 4.818 0 0 1-3.515-4.223 4.771 4.771 0 0 0 3.713 4.875.623.623 0 0 1-.198-.652z" transform="translate(-464.023 -286.535)"/>
            </g>
            <path id="Path_812" fill="url(#linear-gradient-2)" d="M814.931 307.7s-1.105-.142-1.105-1.786a25.537 25.537 0 0 0-.794-4.677s-.68-5.3-1.644-6.123-2.183-5.754-2.183-5.754a11.794 11.794 0 0 0-.624-3.26 32.124 32.124 0 0 1-1.871-4c-.879-2.013-4.393-3.4-4.393-3.4s-6.434-3.741-8.248-4.96l-.453-.34c-.312-.425-1.7-.425-1.7-.425a27.966 27.966 0 0 1-.34-2.92v-.312a9.807 9.807 0 0 0 4.308-5.329l.085-.34a.935.935 0 0 0 .567-.51c.17-.368.17-.794.369-1.134a4.172 4.172 0 0 1 1.049-.907 3.914 3.914 0 0 0 1.077-3.231 25.887 25.887 0 0 1-.113-2.863 1.135 1.135 0 0 1 .028-.227c.028-.142.028-.283.057-.425.142-.709.453-1.361.624-2.069a2.692 2.692 0 0 0-.2-2.1c-.4-.624-1.786-1.049-2.863-1.134s-2.268.028-3.061-.964a10.7 10.7 0 0 0-1.219-1.474c-.17-.142-1.7-1.105-1.7-1.162a6.889 6.889 0 0 0-4.819-.368c-.793.227-1.559.624-2.352.794-1.758.425-3.77-.028-5.244.964a6.124 6.124 0 0 0-1.786 2.353l-1.162 2.154a14.074 14.074 0 0 0-1.531 3.713 6.312 6.312 0 0 0-.113.879v.453a1.551 1.551 0 0 0 .028.284 1.593 1.593 0 0 0 .028.17c.028.057.028.2.057.283l.085.368a.567.567 0 0 0 .057.17l.085.283.056.142.142.284.057.113.255.368c.6.765 1.5 1.247 2.154 1.956v.312a9.694 9.694 0 0 0 4.419 8.028 1.383 1.383 0 0 0 .028.34 16.163 16.163 0 0 1-.028 2.523 1.191 1.191 0 0 0-.935-.425h-.4c-.624.142-1.389.794-2.126 2.636 0 0-2.239 2.523-3.94 2.409s-5.999 2.64-5.999 2.64-4.2 2.721-5.1 5.5a38.468 38.468 0 0 1-1.814 4.62l-5.222 10.68-.964 8.5a37.238 37.238 0 0 1 .425 4.365c-.113.6 2.183 5.754 2.183 5.754s7.54 13.266 10.63 13.946l.227-.142.425.142.624-.454a6.638 6.638 0 0 1-.057 1.5c-.425 1.3.17 9.864.907 11.536s.482 23.64.482 23.64l-.114 1.927a.815.815 0 0 0 .028.17v.482h.085a5.469 5.469 0 0 1-.085 1.842 21.826 21.826 0 0 0-.369 3.26s-2.126 13.577-1.105 16.3 1.87 5.732 1.87 5.732 1.077 3.4.057 3.968-3.883 1.559-3.288 2.976 2.579 4.819 2.891 5.329v.284l-.425 4.507a5.675 5.675 0 0 0 .482 1.729 2.949 2.949 0 0 0 3.033 1.9l.935-.085a41.529 41.529 0 0 0 6.888-1.786 2.723 2.723 0 0 1-.538-.454 1.559 1.559 0 0 1-.482-1.134c.057-.822-1.5-4.734-1.871-5.7l-.085-.227s3.515-3.685 2.92-6.916c0 0-3.883-2.268-2.608-3.515a40.508 40.508 0 0 0 3.572-4.819s.114-13.379 0-15.363a16.56 16.56 0 0 1 .2-4.138c.057-.2.085-.4.142-.6a36.2 36.2 0 0 0 5.357.4h1.984q0 .283.028.624c.142 3.316.425 9.127.652 11.281.312 3.09 2.069 11.423 2.069 11.423s-3.345 2.154.6 7.455a7.434 7.434 0 0 1-.255 2.211 23.952 23.952 0 0 0-.68 2.778 4.913 4.913 0 0 0 .028 2.523c.652 1.247 4.479 1.162 4.479 1.162h.085a5.471 5.471 0 0 1 4.053 1.219c1.445 1.162 6.973.652 9.949.283l1.956-.283a1.134 1.134 0 0 0 .028-.4c-.028-.737-.6-2.353-4.507-3.77 0 0-3.657-2.466-3.628-4.62h-.141s-1.446-5.244-.851-5.669-1.162-6.236-1.162-6.236-.992-9.751-1.049-10.431a5.989 5.989 0 0 1 .255-1.73l-.255-5.356s-.057-1.786 0-2.353a11.137 11.137 0 0 0-.113-1.5l-.085-.624a23.051 23.051 0 0 0 2.268-.68l-.17-18.623c1.162-2.268 1.389-7.256 1.389-10.771 0-2.268-.113-3.94-.113-3.94l1.587-2.608s.368-3.118-.227-3.8-.142-.624.085-.907l.368-.255v-.057l.368-.255s-.567-.879-.057-1.247l1.219.765c-.028.2-.057.34-.057.34l.141-.283.51.283s2.495-4.989 2.438-5.726 1.7-3.827 1.7-3.827a3.926 3.926 0 0 1 1.162-2.3c.935-.68.737-5.612.737-5.612a11.433 11.433 0 0 1 .907-3.6c.648-1.009-.6-2.54-.6-2.54zm-47.846-2.183l.057 1.191-.482-.794z" transform="translate(-544.343 -179.047)"/>
            <path id="Path_813" d="M928.909 522.183l-.624 2.608s-4.9-2.523-5.782-5.7a3.62 3.62 0 0 1 1.474-4.394l4.563 1.927z" class="cls-3" transform="translate(-664.644 -370.872)"/>
            <path id="Path_814" d="M928.909 522.183l-.624 2.608s-4.9-2.523-5.782-5.7a3.62 3.62 0 0 1 1.474-4.394l4.563 1.927z" class="cls-4" transform="translate(-664.644 -370.872)"/>
            <path id="Path_815" d="M820.411 828.189a34.661 34.661 0 0 1-7.653 1.871 2.936 2.936 0 0 1-2.976-1.871 5.752 5.752 0 0 1-.482-1.7l.425-4.478.227-2.381 6.633-1.729.935 2.863.085.227c.368.964 1.9 4.847 1.842 5.669a1.56 1.56 0 0 0 .454 1.134 2.633 2.633 0 0 0 .51.395z" class="cls-3" transform="translate(-583.27 -589.386)"/>
            <path id="Path_816" d="M906.342 825.033a1.127 1.127 0 0 1-.028.4s-9.694 1.616-11.678 0a5.244 5.244 0 0 0-4.082-1.19s-3.742.113-4.394-1.134a4.914 4.914 0 0 1-.028-2.523 24.141 24.141 0 0 1 .652-2.75l.142-.113.907-.709 10.459-.312h.085c-.057 2.126 3.543 4.592 3.543 4.592 3.827 1.415 4.394 3.031 4.422 3.739z" class="cls-3" transform="translate(-638.631 -588.526)"/>
            <path id="Path_817" d="M906.27 834.85a1.159 1.159 0 0 1-.056.4s-9.694 1.615-11.678 0a5.243 5.243 0 0 0-4.082-1.191s-3.742.113-4.393-1.134a4.913 4.913 0 0 1-.028-2.523c1.445.142 3.742.51 4.62 1.361a10.471 10.471 0 0 0 5.045 2.721c1.389.111 7.766.281 10.572.366z" class="cls-4" transform="translate(-638.559 -598.343)"/>
            <path id="Path_818" d="M821.629 853.125a34.661 34.661 0 0 1-7.653 1.875 2.937 2.937 0 0 1-2.976-1.875c1.162.4 2.75.794 3.6.425a35.566 35.566 0 0 1 6.519-.85 2.579 2.579 0 0 0 .51.425z" class="cls-4" transform="translate(-584.49 -614.322)"/>
            <path id="Path_819" d="M853.254 337.307c-3.742-1.446-8.56-6.264-7.341-8.5a5.076 5.076 0 0 0 .482-1.814 16.465 16.465 0 0 0 .028-2.551 35.052 35.052 0 0 0-.51-4.138s11.678.255 11 1.984a6.4 6.4 0 0 0-.17 2.353c.057.964.2 2.1.34 3.033s.4 2.268.4 2.268-.709.992-1.134 1.049 2.263 8.409-3.095 6.316z" class="cls-10" transform="translate(-609.519 -230.835)"/>
            <path id="Path_820" d="M818.652 820.89l-.085.085c-3.486-4.223-7.71 1.049-7.71 1.049l-.057-.113.227-2.381 6.633-1.729.935 2.863z" class="cls-4" transform="translate(-584.318 -589.315)"/>
            <path id="Path_821" d="M900.442 817.083s-2.551-.057-3.912 1.162-7.937.255-7.653 0a.985.985 0 0 0 .142-.425l.907-.709 10.459-.312z" class="cls-4" transform="translate(-640.607 -588.598)"/>
            <path id="Path_822" d="M815.805 686.684a7.93 7.93 0 0 0-.425 1.445 16.651 16.651 0 0 0-.2 4.138c.114 1.984 0 15.278 0 15.278a40.592 40.592 0 0 1-3.486 4.79c-1.247 1.247 2.551 3.486 2.551 3.486.567 3.231-2.863 6.888-2.863 6.888-3.486-4.223-7.71 1.049-7.71 1.049s-2.3-3.968-2.863-5.386 2.239-2.409 3.231-2.976-.057-3.968-.057-3.968-.822-2.976-1.814-5.7 1.105-16.213 1.105-16.213a21.188 21.188 0 0 1 .369-3.231 5.474 5.474 0 0 0 .085-1.842c-.028-.2-.028-.369-.057-.482v-.227l1.417-2.636s11.397 3.915 10.717 5.587z" class="cls-5" transform="translate(-577.139 -491.362)"/>
            <path id="Path_823" d="M892.726 726.486s-2.551-.057-3.912 1.134-7.936.255-7.653 0 .255-2.182.255-2.182c-3.855-5.272-.567-7.4-.567-7.4s-1.729-8.277-2.041-11.366c-.227-2.154-.482-7.937-.624-11.225-.057-1.417-.085-2.409-.085-2.409l3.118-.624.4-.085 7.6-1.531s.2 1.417.34 2.58a11.308 11.308 0 0 1 .113 1.5c-.057.567 0 2.353 0 2.353l.255 5.329a6.119 6.119 0 0 0-.255 1.729c.057.68 1.049 10.374 1.049 10.374s1.729 5.782 1.134 6.208.873 5.615.873 5.615z" class="cls-5" transform="translate(-632.882 -498.313)"/>
            <path id="Path_824" d="M857.3 322.284a6.386 6.386 0 0 0-.17 2.353 9.722 9.722 0 0 1-10.318-.2 35.079 35.079 0 0 0-.51-4.138s11.676.284 10.998 1.985z" class="cls-4" transform="translate(-609.929 -230.77)"/>
            <path id="Path_825" d="M851.988 280.694a9.695 9.695 0 1 1-19.388.227v-.227a9.694 9.694 0 1 1 19.388 0z" class="cls-10" transform="translate(-600.146 -195.315)"/>
            <path id="Path_826" d="M853.254 354.218c-3.742-1.445-8.56-6.264-7.341-8.5a5.077 5.077 0 0 0 .482-1.814l5.074 4.223 3.175 2.608 2.409-6.123c.2 1.276.4 2.268.4 2.268s-.708.992-1.134 1.049 2.293 8.386-3.065 6.289z" class="cls-4" transform="translate(-609.519 -247.803)"/>
            <path id="Path_827" d="M857.592 371.766l-4.28 71.855-5.584.368-14.428-41.667 2.353-49.462.51-10.459 6.406 5.272 3.175 2.608 2.494-6.321 4.592 4.025z" class="cls-5" transform="translate(-600.705 -247.599)"/>
            <path id="Path_828" d="M822.945 686.756a7.932 7.932 0 0 0-.425 1.446 41.1 41.1 0 0 1-11.735-3.656h-.085v-.709l1.417-2.636s11.508 3.882 10.828 5.555z" class="cls-4" transform="translate(-584.29 -490.811)"/>
            <path id="Path_829" d="M881.231 699.164a28.763 28.763 0 0 1-3.146.369c-.057-1.418-.085-2.409-.085-2.409l3.146-.624z" class="cls-4" transform="translate(-632.687 -502.397)"/>
            <path id="Path_830" d="M898.608 693.379a22.312 22.312 0 0 1-7.908.737v-1.786l7.6-1.531s.138 1.418.308 2.58z" class="cls-4" transform="translate(-641.886 -498.313)"/>
            <path id="Path_831" d="M797.635 444.7c-11.622 1.984-22.251-3.713-22.251-3.713l.113-1.927s.255-21.854-.482-23.526-1.3-10.147-.879-11.451-1.5-20.862-1.5-20.862l-.312-7.937-11.424-4.648 5.1-10.629a38.473 38.473 0 0 0 1.786-4.592c.879-2.75 5.017-5.471 5.017-5.471s4.223-2.721 5.9-2.608 3.855-2.409 3.855-2.409c1.616-4.11 3.09-2.268 3.09-2.268a3.673 3.673 0 0 1-.085.6c-.567 4.535 9.156 18.821 9.3 19.076l.936 22.591.935 28.572z" class="cls-4" transform="translate(-548.66 -247.509)"/>
            <path id="Path_832" d="M796.392 444.773c-11.621 1.984-22.279-3.713-22.279-3.713l.113-1.927s.255-21.854-.482-23.526-1.3-10.176-.879-11.48-1.531-20.834-1.531-20.834l-.312-7.937-11.422-4.649 5.1-10.629a39 39 0 0 0 1.786-4.592c.879-2.749 5.017-5.471 5.017-5.471s4.224-2.721 5.9-2.608 3.855-2.381 3.855-2.381c1.616-4.11 3.4-2.268 3.4-2.268a.843.843 0 0 0-.085.6c1.247 4.394 8.844 18.821 8.986 19.076l.935 22.591.935 28.572z" class="cls-3" transform="translate(-547.723 -247.581)"/>
            <path id="Path_833" d="M851.214 364.6c-1.247-.51-7.88-8.078-7.88-8.078v-1.729c-.227-.567-1.672-.227-2.834.17l.51-10.459.567.482c1.247 4.389 9.496 19.356 9.637 19.614z" class="cls-4" transform="translate(-605.746 -248.293)"/>
            <path id="Path_834" d="M852.315 362.468c-1.247-.539-7.88-8.078-7.88-8.078v-1.729c-.227-.567-1.672-.227-2.835.17l.482-10.431.567.454c1.275 4.393 9.524 19.359 9.666 19.614z" class="cls-3" transform="translate(-606.539 -246.78)"/>
            <path id="Path_835" d="M810.252 544.122l8.078-.822s4.79 9.439 4.479 11.735-.879 4.337-2.809 3.965-10.4.283-10.4.283z" class="cls-4" transform="translate(-583.507 -391.537)"/>
            <path id="Path_836" d="M809.152 541.922l8.078-.822s4.79 9.439 4.478 11.706-.879 4.337-2.806 3.968-10.4.284-10.4.284z" class="cls-3" transform="translate(-582.715 -389.951)"/>
            <path id="Path_837" d="M820.937 528.4s7.285 3.912 7.426 5.1-3.713-.51-4.535-.737a10.763 10.763 0 0 0-1.672-.255l-5.556.142z" class="cls-10" transform="translate(-588.536 -380.703)"/>
            <circle id="Ellipse_6" cx=".765" cy=".765" r=".765" class="cls-4" transform="translate(242.675 115.132)"/>
            <circle id="Ellipse_7" cx=".765" cy=".765" r=".765" class="cls-6" transform="translate(242.675 114.825)"/>
            <circle id="Ellipse_8" cx=".765" cy=".765" r=".765" class="cls-4" transform="translate(244.045 147.787)"/>
            <circle id="Ellipse_9" cx=".765" cy=".765" r=".765" class="cls-6" transform="translate(244.045 147.479)"/>
            <circle id="Ellipse_10" cx=".765" cy=".765" r=".765" class="cls-4" transform="translate(243.43 131.459)"/>
            <circle id="Ellipse_11" cx=".765" cy=".765" r=".765" class="cls-6" transform="translate(243.43 131.152)"/>
            <path id="Path_838" d="M899.842 401.778s.51.794 0 1.134.057 1.247.057 1.247-1.3.765-.737 1.446.2 3.77.2 3.77l-1.559 2.608s.085 1.672.085 3.912c0 3.515-.2 8.475-1.361 10.714l.142 18.509s-5.471 2.013-10.062 1.389l-.68-29.706s.992-16.837 1.361-20.068a33.647 33.647 0 0 0 .255-5.045 54.051 54.051 0 0 0-.68-7.4s-.567-10.176-.624-12.982c-.028-1.332.057-5.272.113-9.014s.2-7.937.2-7.937l-1.049-8.192s1.049-.113 1.361.312l.454.34c1.786 1.219 8.107 4.932 8.107 4.932s3.486 1.389 4.337 3.373a33.645 33.645 0 0 0 1.814 3.968 12.579 12.579 0 0 1 .624 3.231s1.191 4.9 2.126 5.726 1.616 6.094 1.616 6.094l-8.277 6.519s-.737 10.856-.879 11.253 3.056 9.867 3.056 9.867z" class="cls-3" transform="translate(-638.281 -250.294)"/>
            <path id="Path_839" d="M900.226 401.526s.51.794 0 1.134.056 1.247.056 1.247-1.3.765-.737 1.446.2 3.77.2 3.77l-1.559 2.608s.085 1.672.113 3.912c0 3.515-.2 8.475-1.36 10.714l.142 18.509s-5.471 2.013-10.062 1.389l-.68-29.706s.992-16.837 1.361-20.068a33.287 33.287 0 0 0 .255-5.045 54.01 54.01 0 0 0-.68-7.4s-.567-10.176-.623-12.982c-.028-1.332.057-5.272.113-9.014s.2-7.937.2-7.937l-1.361-8.3s1.361 0 1.672.425l.454.34c1.786 1.219 8.107 4.932 8.107 4.932s3.487 1.389 4.337 3.373a33.651 33.651 0 0 0 1.814 3.968 12.584 12.584 0 0 1 .624 3.231s1.19 4.9 2.126 5.726 1.616 6.094 1.616 6.094l-8.277 6.519s-.737 10.856-.879 11.253 3.028 9.862 3.028 9.862z" class="cls-3" transform="translate(-638.357 -250.042)"/>
            <path id="Path_840" d="M891.237 358.091l.765 2.183-3.94 3.968c.085-4.082.2-7.937.2-7.937L886.9 348s1.361 0 1.672.425l.453.34 3.345 9.666z" class="cls-4" transform="translate(-639.122 -250.791)"/>
            <path id="Path_841" d="M890.037 355.891l.765 2.183-3.94 3.968c.085-4.082.2-7.937.2-7.937L885.7 345.8s1.361 0 1.672.425l.454.34 3.345 9.694z" class="cls-3" transform="translate(-638.258 -249.206)"/>
            <path id="Path_842" d="M851.988 280.694a9.665 9.665 0 0 1-.482 3 .4.4 0 0 1-.312-.085 12.572 12.572 0 0 0-2.863-6.973 7.4 7.4 0 0 0-1.559-1.616 3.061 3.061 0 0 0-2.126-.6c-.85.113-1.616.709-2.466.765s-2.154-.68-3.26-.737a3.2 3.2 0 0 0-2.409 1.105 6.574 6.574 0 0 0-1.276 2.381 14.01 14.01 0 0 0-.709 4.138c0 .794-.085 1.786-.822 2.069a4.223 4.223 0 0 0-1.077-3.231h-.027v-.227a9.694 9.694 0 1 1 19.388 0z" class="cls-4" transform="translate(-600.147 -195.284)"/>
            <path id="Path_843" fill="#512e4e" d="M838.792 249.3a6.69 6.69 0 0 0-4.705-.369c-.794.227-1.531.6-2.324.794-1.7.425-3.685-.028-5.159.964a6.171 6.171 0 0 0-1.757 2.324l-1.134 2.154a13.814 13.814 0 0 0-1.5 3.685 4.708 4.708 0 0 0 .709 3.8c.822 1.049 1.5 1.247 2.126 1.956a4.252 4.252 0 0 1 1.077 3.231c.737-.283.822-1.275.822-2.069a14 14 0 0 1 .709-4.138 6.576 6.576 0 0 1 1.275-2.381 3.2 3.2 0 0 1 2.409-1.134c1.134.028 2.154.822 3.26.737s1.616-.652 2.466-.765a3.033 3.033 0 0 1 2.126.6 7.258 7.258 0 0 1 1.559 1.616 12.49 12.49 0 0 1 2.891 6.973c.312.227.794-.085.936-.425a8.741 8.741 0 0 1 .368-1.134 4.573 4.573 0 0 1 1.02-.907 4.044 4.044 0 0 0 1.077-3.2 15.936 15.936 0 0 1-.028-3.486c.142-.709.425-1.361.6-2.041a2.624 2.624 0 0 0-.2-2.069 4.35 4.35 0 0 0-2.806-1.134c-1.049-.085-2.239.028-3-.964a11.071 11.071 0 0 0-1.191-1.446c-.096-.181-1.626-1.117-1.626-1.172z" transform="translate(-592.645 -179.217)"/>
            <path id="Path_844" d="M762.483 447.971l-2.948-5.471-.935 8.447s.51 3.741.425 4.337 2.126 5.726 2.126 5.726 7.4 13.18 10.431 13.861l10.2-7.313-2.721-3.43s-.936-.368-1.162 0-5.046-8.645-5.556-9.269a3.221 3.221 0 0 1-.425-1.871s-.794-.822-.51-1.616-1.5-3.487-1.5-3.487l1.616-1.5z" class="cls-4" transform="translate(-546.857 -319.034)"/>
            <path id="Path_845" d="M758.029 440.3l-.794.624-.936 8.447s.51 3.741.425 4.337 2.126 5.726 2.126 5.726 7.4 13.18 10.431 13.861l10.233-7.285-2.721-3.43s-.935-.368-1.162 0-5.017-8.645-5.556-9.269a3 3 0 0 1-.425-1.871s-.794-.822-.51-1.616-1.5-3.486-1.5-3.486l1.616-1.5z" class="cls-3" transform="translate(-545.2 -317.454)"/>
            <path id="Path_846" d="M918.65 544.346c.567.68.2 3.77.2 3.77l-1.559 2.58s.085 1.672.085 3.94l-2.636.822a1.559 1.559 0 0 1-2.041-1.531l.454-14.626 6.151 2.353c-.51.369.057 1.247.057 1.247s-1.277.736-.711 1.445z" class="cls-4" transform="translate(-657.721 -388.657)"/>
            <path id="Path_847" d="M919.823 543.174c.567.68.2 3.77.2 3.77l-1.559 2.579s.085 1.672.113 3.912l-2.693.85a1.531 1.531 0 0 1-1.984-1.5l.454-14.683 6.122 2.352c-.51.369.057 1.247.057 1.247s-1.277.764-.71 1.473z" class="cls-3" transform="translate(-658.586 -387.792)"/>
            <path id="Path_848" d="M929.56 525.448s-.425 2.664-1.474 2.806-1.5 4.308-2.551 4.167-.34-3.855-.312-4.592-1.134-3.713-.255-4.394 3.657 0 3.657 0z" class="cls-10" transform="translate(-666.306 -376.942)"/>
            <path id="Path_849" d="M929.087 448.968l1.956-3.968a25.579 25.579 0 0 1 .793 4.649c0 1.616 1.106 1.786 1.106 1.786s1.19 1.417.567 2.438a11.987 11.987 0 0 0-.879 3.6s.2 4.9-.737 5.584a3.821 3.821 0 0 0-1.134 2.3s-1.729 3.061-1.672 3.8-2.409 5.669-2.409 5.669 1.19-6.151-5.782-8.815c0 0-.057-2.1.482-2.664s1.332-.851.822-3.742a33.782 33.782 0 0 1-.142-7.058 43.386 43.386 0 0 1 1.559-5.017z" class="cls-4" transform="translate(-663.697 -320.813)"/>
            <path id="Path_850" d="M931.514 443l1.729.567a25.571 25.571 0 0 1 .794 4.649c0 1.616 1.106 1.786 1.106 1.786s1.19 1.417.567 2.438a11.991 11.991 0 0 0-.879 3.6s.2 4.9-.737 5.584a3.821 3.821 0 0 0-1.134 2.3s-1.729 3.061-1.672 3.8-2.409 5.669-2.409 5.669 1.19-6.151-5.782-8.815c0 0-.057-2.1.482-2.664s1.332-.85.822-3.741a33.782 33.782 0 0 1-.142-7.058 43.385 43.385 0 0 1 1.559-5.017z" class="cls-3" transform="translate(-665.282 -319.376)"/>
            <path id="Path_851" d="M819 803.539s2.75-1.729 4.535-.482-4.535.482-4.535.482z" class="cls-4" transform="translate(-590.196 -578.427)"/>
            <path id="Path_852" d="M894 787.061a5.543 5.543 0 0 1 4.45 1.871c2.041 2.183-4.45-1.871-4.45-1.871z" class="cls-4" transform="translate(-644.231 -567.278)"/>
            <g id="Group_473" class="cls-7" transform="translate(229.491 75.661)">
                <path id="Path_853" d="M856.342 286.482c-.34.312-.794.51-1.02.907a10.487 10.487 0 0 0-.369 1.134c-.17.368-.624.68-.936.425a12.572 12.572 0 0 0-2.863-6.973 7.262 7.262 0 0 0-1.559-1.616 3.061 3.061 0 0 0-2.126-.6c-.85.113-1.587.709-2.466.765s-2.154-.68-3.288-.737a3.2 3.2 0 0 0-2.409 1.105 6.581 6.581 0 0 0-1.275 2.381 14.005 14.005 0 0 0-.708 4.138c-.028.794-.085 1.786-.822 2.069a3.954 3.954 0 0 1 0 .624c.737-.284.822-1.276.822-2.069a14 14 0 0 1 .708-4.138 6.582 6.582 0 0 1 1.275-2.381 3.2 3.2 0 0 1 2.409-1.134c1.134.028 2.154.822 3.288.737s1.616-.652 2.466-.765a3.061 3.061 0 0 1 2.126.6 7.263 7.263 0 0 1 1.559 1.616 12.255 12.255 0 0 1 2.863 6.973c.312.227.794-.085.936-.425a8.791 8.791 0 0 1 .369-1.134 4.568 4.568 0 0 1 1.02-.907 4.042 4.042 0 0 0 1.077-3.2v-.085a3.674 3.674 0 0 1-1.077 2.69z" transform="translate(-832.459 -277.213)"/>
                <path id="Path_854" d="M825.207 291.98c-.652-.709-1.531-1.19-2.126-1.956a4.112 4.112 0 0 1-.822-2.324 4.366 4.366 0 0 0 .822 2.948c.6.765 1.5 1.247 2.126 1.956a4.251 4.251 0 0 1 1.077 2.523 4.252 4.252 0 0 0-1.077-3.147z" transform="translate(-822.243 -282.91)"/>
                <path id="Path_855" d="M910.558 271.31c-.17.709-.453 1.361-.6 2.069a6.564 6.564 0 0 0-.085 1.446 5.535 5.535 0 0 1 .085-.822c.142-.709.425-1.361.6-2.041a3.574 3.574 0 0 0 .085-1.162 3.985 3.985 0 0 1-.085.51z" transform="translate(-885.031 -270.8)"/>
            </g>
            <ellipse id="Ellipse_12" cx="27.608" cy="4.45" class="cls-1" rx="27.608" ry="4.45" transform="translate(9.864 225.566)"/>
            <path id="Rectangle_45" fill="#535461" d="M0 0H1.786V40.015H0z" transform="translate(36.593 145.951)"/>
            <path id="Path_856" d="M114.239 657.321l-.113 1.814-.17 2.551-.057 1.049-.17 2.551-.057 1.049-.17 2.551-1.786 28.94a4.9 4.9 0 0 1-4.875 4.592h-9.325a4.9 4.9 0 0 1-4.9-4.62l-1.786-28.94-.17-2.551-.057-1.049-.17-2.551-.057-1.049-.17-2.551-.113-1.814A2.551 2.551 0 0 1 92.5 654.6h19.19a2.551 2.551 0 0 1 2.523 2.579.316.316 0 0 1 .026.142z" class="cls-6" transform="translate(-64.692 -472.374)"/>
            <path id="Path_857" d="M114.495 670.5l-.17 2.551H90.742L90.6 670.5z" class="cls-13" transform="translate(-65.061 -483.053)"/>
            <path id="Path_858" d="M114.841 683.2l-.17 2.551H91.542L91.4 683.2z" class="cls-13" transform="translate(-65.634 -492.202)"/>
            <path id="Path_859" d="M115.188 696l-.17 2.523H92.342L92.2 696z" class="cls-13" transform="translate(-66.208 -502.039)"/>
            <path id="Path_860" d="M23.318 556.308c10.346 7.483 14.654 19.19 14.654 19.19s-12.472-.425-22.818-7.908S.5 548.4.5 548.4s12.472.425 22.818 7.908z" class="cls-5" transform="translate(-.5 -395.328)"/>
            <path id="Path_861" d="M.5 548.4s12.954 7.171 17.092 13.124 20.38 13.976 20.38 13.976" class="cls-14" transform="translate(-.5 -395.328)"/>
            <path id="Path_862" d="M73.215 512.208a25.173 25.173 0 0 1 7.993 10.459 24.955 24.955 0 0 1-12.415-4.308A25.468 25.468 0 0 1 60.8 507.9a25.033 25.033 0 0 1 12.415 4.308z" class="cls-5" transform="translate(-43.708 -366.014)"/>
            <path id="Path_863" d="M60.7 507.9s7.058 3.912 9.3 7.143 11.111 7.625 11.111 7.625" class="cls-14" transform="translate(-43.636 -366.014)"/>
            <path id="Path_864" d="M141.752 535.154a34.912 34.912 0 0 0-7.852 16.412 34.666 34.666 0 0 0 15.59-9.354 34.911 34.911 0 0 0 7.852-16.412 34.665 34.665 0 0 0-15.59 9.354z" class="cls-5" transform="translate(-96.088 -379.022)"/>
            <path id="Path_865" d="M157.413 525.8s-8.419 7.285-10.573 12.3S134 551.566 134 551.566" class="cls-14" transform="translate(-96.159 -379.022)"/>
        </g>
    </g>
</svg>
