<svg xmlns="http://www.w3.org/2000/svg" xmlns:xlink="http://www.w3.org/1999/xlink" width="62.99" height="93.593" viewBox="0 0 62.99 93.593">
    <defs>
        <radialGradient id="jr2pdbj7vb" cx=".506" cy=".445" r="1.909" gradientTransform="matrix(.36 -.056 .02 .998 .483 .045)" gradientUnits="objectBoundingBox">
            <stop offset="0" stop-color="#b7eae0"/>
            <stop offset=".51" stop-color="#22b573"/>
            <stop offset=".69" stop-color="#22b573"/>
            <stop offset=".93" stop-color="#006837"/>
        </radialGradient>
        <radialGradient id="cvhj1nwlya" cx=".438" cy=".113" r=".538" gradientTransform="matrix(1.137 -.056 .064 .998 -.114 .041)" gradientUnits="objectBoundingBox">
            <stop offset="0" stop-color="#b7eae0"/>
            <stop offset=".53" stop-color="#7ed9c7"/>
            <stop offset="1" stop-color="#4ccab2"/>
        </radialGradient>
        <radialGradient id="sthby116cd" cx=".76" cy=".426" r=".48" gradientTransform="matrix(1.665 0 0 1 -.332 0)" xlink:href="#cvhj1nwlya"/>
        <radialGradient id="zyyy5vwote" cx=".428" cy=".371" r=".745" gradientTransform="matrix(1.234 -.056 .069 .998 -.27 .056)" gradientUnits="objectBoundingBox">
            <stop offset="0" stop-color="#b7eae0"/>
            <stop offset=".49" stop-color="#4ccab2"/>
            <stop offset=".77" stop-color="#399886"/>
            <stop offset=".92" stop-color="#266559"/>
        </radialGradient>
        <radialGradient id="83ljg1yq2f" cx=".44" cy=".342" r="1.056" gradientTransform="matrix(.813 0 0 1 .083 0)" xlink:href="#jr2pdbj7vb"/>
        <radialGradient id="gc699ju0yg" cx="12.503" cy="-3.043" r="11.067" gradientTransform="matrix(1.074 0 0 1 -.037 0)" xlink:href="#cvhj1nwlya"/>
        <radialGradient id="fkio4up8lh" cx="13.55" cy="-3.043" r="11.067" gradientTransform="matrix(1.07 0 0 1 -.035 0)" xlink:href="#cvhj1nwlya"/>
        <radialGradient id="jipuamscgi" cx="8.187" cy="-8.405" r="11.067" gradientTransform="matrix(1.062 0 0 1 -.031 0)" xlink:href="#cvhj1nwlya"/>
        <radialGradient id="2gkcne8amj" cx="9.251" cy="-8.405" r="11.067" gradientTransform="matrix(1.062 0 0 1 -.031 0)" xlink:href="#cvhj1nwlya"/>
        <radialGradient id="xs9o4zrrkk" cx="6.758" cy="-3.394" r="11.067" gradientTransform="matrix(1.074 0 0 1 -.037 0)" xlink:href="#cvhj1nwlya"/>
        <radialGradient id="2dy985tzol" cx="1.633" cy="-1.215" r="3.069" gradientTransform="matrix(.451 0 0 1 .274 0)" xlink:href="#cvhj1nwlya"/>
        <radialGradient id="4fp9u94hnm" cx="2.362" cy="-2.432" r="10.989" gradientTransform="matrix(1.069 0 0 1 -.035 0)" xlink:href="#cvhj1nwlya"/>
        <radialGradient id="aub169egzn" cx="2.669" cy="-3.325" r="10.879" gradientTransform="matrix(1.08 0 0 1 -.04 0)" xlink:href="#cvhj1nwlya"/>
        <radialGradient id="8vioc2hwvo" cx="1.616" cy="-3.349" r="10.926" gradientTransform="matrix(1.091 0 0 1 -.045 0)" xlink:href="#cvhj1nwlya"/>
        <radialGradient id="4yaros5fvp" cx="1.263" cy="-.655" r="2.292" gradientTransform="matrix(1.345 0 0 1 -.172 0)" xlink:href="#cvhj1nwlya"/>
        <radialGradient id="mv9nccu75q" cx="-1.601" cy="-3.043" r="11.067" gradientTransform="matrix(1.077 0 0 1 -.038 0)" xlink:href="#cvhj1nwlya"/>
        <radialGradient id="26m60xlu0r" cx="-2.67" cy="-3.043" r="11.067" gradientTransform="matrix(1.074 0 0 1 -.037 0)" xlink:href="#cvhj1nwlya"/>
        <radialGradient id="hx2nhj2ess" cx="-.113" cy="-1.01" r="2.56" gradientTransform="matrix(.439 0 0 1 .28 0)" xlink:href="#cvhj1nwlya"/>
        <radialGradient id="mqmekeyz3t" cx="-2.055" cy="-.879" r="2.221" gradientTransform="matrix(.939 0 0 1 .03 0)" xlink:href="#cvhj1nwlya"/>
        <radialGradient id="3jpj15r6ou" cx="-14.521" cy="-2.927" r="10.909" gradientTransform="matrix(1.077 0 0 1 -.039 0)" xlink:href="#cvhj1nwlya"/>
        <radialGradient id="bvelxpex7v" cx="205.767" cy="27.275" r="221.474" gradientTransform="matrix(.667 0 0 1 .167 0)" xlink:href="#jr2pdbj7vb"/>
        <radialGradient id="l4y8h3e0rw" cx=".512" cy=".416" r="2.113" gradientTransform="matrix(-.17 .06 .01 .998 -5.337 .275)" xlink:href="#jr2pdbj7vb"/>
        <linearGradient id="ebaorh8l0c" x1="1.302" x2="1.83" y1=".435" y2=".699" gradientUnits="objectBoundingBox">
            <stop offset=".01" stop-color="#fff"/>
            <stop offset="1" stop-color="#fff" stop-opacity="0"/>
        </linearGradient>
        <linearGradient id="dm2a9m0w7x" x1="-4.121" x2="-4.927" y1="3.766" y2=".366" xlink:href="#ebaorh8l0c"/>
    </defs>
    <g>
        <g>
            <g>
                <path fill="url(#jr2pdbj7vb)" d="M52.238 145.287a38.237 38.237 0 0 1-9.3-.525c-.188-.038-.488-.038-.525-.225s.225-.3.375-.413a31.7 31.7 0 0 1 8.741-4.427 86.245 86.245 0 0 1 11.592-3l2.138-.338.225-.075h-.225c-1.576.075-3.189.075-4.764.3a40.4 40.4 0 0 0-8.853 2.063 68.281 68.281 0 0 0-6.377 2.776c-1.426.675-2.738 1.576-4.126 2.4-.113.075-.3.15-.375.075s.038-.225.113-.3a41.937 41.937 0 0 1 2.738-3.339 22.958 22.958 0 0 1 8.778-5.627 30.647 30.647 0 0 1 5.627-1.388 33.561 33.561 0 0 1 12.379.825c1.463.338 2.889.788 4.352 1.238.188.038.45.15.45.338s-.225.263-.375.338c-3.226 1.463-6.19 3.376-9.266 5.139a33.723 33.723 0 0 1-7.39 3.376 21.269 21.269 0 0 1-5.932.789z" transform="translate(-417.56 -2) translate(420.974 2) translate(-25.459 -83.096)"/>
                <path fill="url(#cvhj1nwlya)" d="M38.98 3.875L36.8 4.1c-.15 0-.375.038-.413-.075s.15-.263.263-.338a18.006 18.006 0 0 1 5.289-2.626A20.918 20.918 0 0 1 60.7 3.95a25.6 25.6 0 0 1 8.928 10.841c.863 1.913 1.651 3.864 2.438 5.815a6.981 6.981 0 0 0 2.926 3.451c1.238.938 1.838 1.275 2.7 1.951 1.651 1.275 1.613 2.063-.113 3.226-.675.45-1.388.788-2.063 1.238s-.638.6-.15 1.2a12.262 12.262 0 0 1 .938 1.2 1.32 1.32 0 0 1 .188 1.426 1.613 1.613 0 0 0 .263 2.026 1.6 1.6 0 0 1 .075 2.1 7.611 7.611 0 0 0-.788 5.552c.525 1.876-1.463 4.427-3.826 4.164a6.9 6.9 0 0 1-1.388-.3 28.273 28.273 0 0 0-7.728-1.087A42.775 42.775 0 0 0 50.76 48.4a2.626 2.626 0 0 1-.675 0 2.888 2.888 0 0 1 .3-.675c.9-1.163 1.763-2.363 2.7-3.451 2.213-2.551 4.464-5.1 6.752-7.54a12.394 12.394 0 0 0 3.339-6.677 20.97 20.97 0 0 0 .45-7.353c-.6-4.764-2.138-9.078-5.589-12.6a20.1 20.1 0 0 0-12.229-5.929 58.183 58.183 0 0 0-6.827-.3z" transform="translate(-417.56 -2) translate(420.974 2) translate(-22.743 -.018)"/>
                <path fill="url(#sthby116cd)" d="M31 40.05a15.948 15.948 0 0 1-1.992 8.55 46.225 46.225 0 0 1-9.416 12.454c-2.7 2.626-5.514 5.1-8.29 7.653l-.338.338c-.113.075-.263.15-.338.075a.352.352 0 0 1-.038-.338c.188-.975.45-1.913.6-2.889a15.221 15.221 0 0 0-1.912-10.388c-1.426-2.4-3-4.727-4.539-7.09C2.749 45.489.986 42.488.348 39a21.533 21.533 0 0 1 .225-8.628A20.933 20.933 0 0 1 4.1 22.193a13.7 13.7 0 0 1 4.989-4.5c.15-.075.375-.263.525-.15s-.038.413-.15.563a28.885 28.885 0 0 0-3.9 12.079 14.506 14.506 0 0 0 1.125 7.953 9.573 9.573 0 0 0 7.84 5.665 11.628 11.628 0 0 0 10.129-3.939 8.441 8.441 0 0 0 2.063-5.514 7.8 7.8 0 0 0-.15-.863c0-.225-.15-.525.038-.638s.525.038.675.188a11.1 11.1 0 0 1 1.726 1.538A8.516 8.516 0 0 1 31 40.05z" transform="translate(-417.56 -2) translate(420.974 2) translate(-.016 -10.946)"/>
                <path fill="url(#zyyy5vwote)" d="M68.632 38.822c0 .188-.038.525-.188.488s-.113-.413-.15-.6c-.075-2.026 0-4.089-.188-6.115a21.8 21.8 0 0 0-2.7-9.078 16.806 16.806 0 0 0-5.74-5.852 33.953 33.953 0 0 0-10.5-3.976l-.938-.188c-.075-.038-.225-.075-.225-.15s.188-.15.3-.15c5.1.413 9.979 1.576 14.255 4.614a14.081 14.081 0 0 1 6.34 10.916 39.851 39.851 0 0 1-.266 10.091z" transform="translate(-417.56 -2) translate(420.974 2) translate(-30 -8.255)"/>
                <path fill="url(#83ljg1yq2f)" d="M39.7 32.8a4.45 4.45 0 0 0-5.177-1.163 11.131 11.131 0 0 0-3.15 2.663 14.867 14.867 0 0 0-2.326-2.288c-.675-.338-3.339-.75-4.764.113a4.878 4.878 0 0 0-2.513 4.389c.188 1.838 1.726 3.489 3.076 4.764l1.575 1.422a45.316 45.316 0 0 0 4.8 3.526l.638.413.6-.488a35.078 35.078 0 0 0 6.677-6.865c1.013-1.463 2.026-3.451 1.35-5.252A3.939 3.939 0 0 0 39.7 32.8z" transform="translate(-417.56 -2) translate(420.974 2) translate(-13.598 -19.524)"/>
                <path fill="url(#ebaorh8l0c)" d="M31.49 35.862a5.177 5.177 0 0 0-2.176-.675 3.849 3.849 0 0 0-4.051 4.089c.188 1.651 1.463 3.039 2.626 4.126l1.35 1.2a38.938 38.938 0 0 0 4.126 3.039l.563.338a4.858 4.858 0 0 1-.075-1.313l-.075-1.388c-.075-1.163-.113-2.288-.188-3.451a31.473 31.473 0 0 0-.188-3.339 3.526 3.526 0 0 0-1.912-2.626z" transform="translate(-417.56 -2) translate(420.974 2) translate(-15.778 -21.989)"/>
            </g>
        </g>
        <g>
            <g>
                <g>
                    <path fill="url(#gc699ju0yg)" d="M15.09 7.839a.979.979 0 0 0 .289-1.4 1.136 1.136 0 0 0-1.38-.6.979.979 0 0 0-.289 1.4 1.136 1.136 0 0 0 1.38.6z" transform="translate(-417.56 -2) translate(417.56 70.208) translate(-10.532 -4.483)"/>
                    <path fill="url(#fkio4up8lh)" d="M5.247 7.839a1 1 0 0 0 .289-1.4 1.162 1.162 0 0 0-1.4-.6 1 1 0 0 0-.289 1.4 1.153 1.153 0 0 0 1.4.6z" transform="translate(-417.56 -2) translate(417.56 70.208) translate(-2.869 -4.483)"/>
                    <path fill="url(#jipuamscgi)" d="M52.1 57.736a.979.979 0 0 0-.289 1.4 1.162 1.162 0 0 0 1.4.6.979.979 0 0 0 .289-1.4 1.162 1.162 0 0 0-1.4-.6z" transform="translate(-417.56 -2) translate(417.56 70.208) translate(-40.155 -44.835)"/>
                    <path fill="url(#2gkcne8amj)" d="M42.4 57.736a.979.979 0 0 0-.289 1.4 1.162 1.162 0 0 0 1.4.6.979.979 0 0 0 .289-1.4 1.162 1.162 0 0 0-1.4-.6z" transform="translate(-417.56 -2) translate(417.56 70.208) translate(-32.613 -44.835)"/>
                    <path fill="url(#xs9o4zrrkk)" d="M66.89 11.239a.979.979 0 0 0 .289-1.4 1.136 1.136 0 0 0-1.38-.6.979.979 0 0 0-.289 1.4 1.136 1.136 0 0 0 1.38.6z" transform="translate(-417.56 -2) translate(417.56 70.208) translate(-50.806 -7.126)"/>
                    <path fill="url(#2dy985tzol)" d="M15.009 20.408c-.423.6.245 2.8.356 3.671s-.668.846-1.2.912c-1.135.134-1.691-.022-2.225-1.113a15.762 15.762 0 0 1-.645-3.961c-.556-.957-2.2.312-1.869 1.224-.022.69.912 3 .378 3.427a1.958 1.958 0 0 1-1.068.423c-2.292.289-2.626-1.424-3.093-3.293-.558-3.898-3.917-3.115-3.784-2.358l.241 1.045C1.169 21.721-.455 22.611.146 24.48s3.649 2.069 4.65.668c.111-.156.312-.156.378 0a3.876 3.876 0 0 0 3.56 1.313 4.116 4.116 0 0 0 2.47-1.068c.556.912 1.891 1.068 2.959 1.068h.045a4.962 4.962 0 0 0 2.092-.6 2.144 2.144 0 0 0 .868-2.136 8.507 8.507 0 0 1-.289-2.915c.022-.089.223-.134.334-.245s-1.536-1.136-2.204-.157zM2.237 22.655c.289-.579.623-1.046.89-1.558.912 0 .912 1.335 1.135 1.98.556 1.692-3.115 2.448-2.025-.422z" transform="translate(-417.56 -2) translate(417.56 70.208) translate(-.016 -14.56)"/>
                    <path fill="url(#4fp9u94hnm)" d="M106.312 2.107A.979.979 0 0 0 106.6.7a1.139 1.139 0 0 0-1.4-.6 1 1 0 0 0-.289 1.424 1.126 1.126 0 0 0 1.401.583z" transform="translate(-417.56 -2) translate(417.56 70.208) translate(-81.439 -.019)"/>
                    <path fill="url(#aub169egzn)" d="M103.512 11.151a1 1 0 0 0 .289-1.424 1.139 1.139 0 0 0-1.4-.6 1 1 0 0 0-.289 1.424 1.116 1.116 0 0 0 1.4.6z" transform="translate(-417.56 -2) translate(417.56 70.208) translate(-79.262 -7.039)"/>
                    <path fill="url(#8vioc2hwvo)" d="M112.2 9.226a1 1 0 0 0-.289 1.424 1.121 1.121 0 0 0 1.38.6 1.018 1.018 0 0 0 .289-1.424 1.121 1.121 0 0 0-1.38-.6z" transform="translate(-417.56 -2) translate(417.56 70.208) translate(-86.882 -7.117)"/>
                    <path fill="url(#4yaros5fvp)" d="M87.89 11.228c-.423.6.245 2.8.378 3.671s-.668.846-1.224.912c-1.224.134-1.335-.979-1.446-1.847-.245-2.047-.49-4.005-.757-6.03a1.148 1.148 0 0 0-1.98-.668 1.647 1.647 0 0 0-.49.512c-.022.067 0 .2.089.2s.312.067.312.156c.668 1.469.846 7.009 1.736 8.344a3.128 3.128 0 0 0 2.581.823 4.984 4.984 0 0 0 2.092-.6 2.144 2.144 0 0 0 .868-2.136 8.507 8.507 0 0 1-.289-2.915c.022-.089.223-.134.334-.245s-1.536-1.156-2.204-.177z" transform="translate(-417.56 -2) translate(417.56 70.208) translate(-64.041 -5.38)"/>
                    <path fill="url(#mv9nccu75q)" d="M142.21 7.839a.979.979 0 0 0 .289-1.4 1.144 1.144 0 0 0-1.38-.6 1 1 0 0 0-.289 1.4 1.136 1.136 0 0 0 1.38.6z" transform="translate(-417.56 -2) translate(417.56 70.208) translate(-109.371 -4.483)"/>
                    <path fill="url(#26m60xlu0r)" d="M151.89 7.839a.979.979 0 0 0 .289-1.4 1.136 1.136 0 0 0-1.38-.6.979.979 0 0 0-.289 1.4 1.136 1.136 0 0 0 1.38.6z" transform="translate(-417.56 -2) translate(417.56 70.208) translate(-116.893 -4.483)"/>
                    <path fill="url(#hx2nhj2ess)" d="M156.6 20.669a4.439 4.439 0 0 0-5.362.067 6.166 6.166 0 0 0-1.713 3.6 1.269 1.269 0 0 1-.111.467 1.736 1.736 0 0 1-.579-.69c-.578-1.469-.311-1.8-.512-3.071-.556-.979-2.069.267-1.869 1.2a18.806 18.806 0 0 1 .4 1.914c.044.512-.712.623-1.157.69-2.27.289-2.6-1.424-3.093-3.293-.512-3.916-3.872-3.115-3.738-2.381l.245 1.046c-.912 1.357-2.559 2.225-1.958 4.116s3.649 2.069 4.65.668c.111-.156.311-.156.378 0a3.856 3.856 0 0 0 3.56 1.313 3.137 3.137 0 0 0 2.381-.712c.267-.245.334.156.645.378a3.627 3.627 0 0 0 .979.467 3.026 3.026 0 0 0 1.046 1.38.111.111 0 0 0 .2-.089 2.915 2.915 0 0 0-.156-.912c-.022-.067-.111-.289.111-.223 2.648.512 6.431.356 7.165-2.336a3.351 3.351 0 0 0-1.512-3.599zm-17.38 1.891c.289-.579.623-1.046.89-1.558.912 0 .912 1.335 1.135 1.98.534 1.669-3.137 2.425-2.025-.445zm11.66 2.737c-.089 0-.111-.134-.089-.223.223-1.469 1.046-3.916 2.959-3.827a2.21 2.21 0 0 1 2.136 1.713c.556 2.8-3.516 2.581-5.006 2.314z" transform="translate(-417.56 -2) translate(417.56 70.208) translate(-106.536 -14.443)"/>
                    <path fill="url(#mqmekeyz3t)" d="M243.163 22.743a7.322 7.322 0 0 0-.423-1.847 3.151 3.151 0 0 0-3.827-2.025c-3.4 1.2-1.268 6.186 2.136 5.162a.111.111 0 0 1 .111.111c-.312.69-3.137.846-3.849.868-.868.111-1.513-.668-2-1.691a7.787 7.787 0 0 1-.311-1.067c-.067-.378-.356-1.335.245-1.335.134.022.156-.111.111-.178a1.42 1.42 0 0 0-2.292.134c-.49.757.445 3.827.712 5.1.178.823.423 2.425-.868 2.4-.356 0-.645-.289-.979-.312s-.067.111 0 .178c.757 1.291 2.6 1.78 3.516.312a4.452 4.452 0 0 0 .267-2.448 2.27 2.27 0 0 0 1.624.378c2.444-.135 6.183-.091 5.827-3.74zm-2 .223a2.953 2.953 0 0 1-1.513-.579 1.869 1.869 0 0 1-.289-2.359c.312-.49 1.024 0 1.224.334a5.652 5.652 0 0 1 .8 2.448.2.2 0 0 1-.245.156z" transform="translate(-417.56 -2) translate(417.56 70.208) translate(-180.196 -14.559)"/>
                    <path fill="url(#3jpj15r6ou)" d="M260.212 7.151a1 1 0 0 0 .289-1.424 1.139 1.139 0 0 0-1.4-.6.979.979 0 0 0-.289 1.4 1.152 1.152 0 0 0 1.4.624z" transform="translate(-417.56 -2) translate(417.56 70.208) translate(-201.095 -3.929)"/>
                </g>
                <path fill="none" d="M27.648 88.247Q26.291 87.468 25 86.6a18.133 18.133 0 0 0 2.648 1.647z" transform="translate(-417.56 -2) translate(417.56 70.208) translate(-19.441 -67.335)"/>
                <path fill="url(#bvelxpex7v)" d="M24.3 86.2l.134.089-.045-.045z" transform="translate(-417.56 -2) translate(417.56 70.208) translate(-18.897 -67.024)"/>
                <g>
                    <path fill="url(#l4y8h3e0rw)" d="M17.3 73.813a31.309 31.309 0 0 0 9.835-1.4L24.643 75.3a69.189 69.189 0 0 0 23.564 4.183 45.993 45.993 0 0 0 12.55-1.847A39.652 39.652 0 0 0 72.215 72.1a39.985 39.985 0 0 1-11.281 6.141 46.927 46.927 0 0 1-12.683 2.514 63.127 63.127 0 0 1-12.972-.579A82.04 82.04 0 0 1 23.753 77.6l-.067 3.849a30.541 30.541 0 0 0-6.386-7.636z" transform="translate(-417.56 -2) translate(417.56 70.208) translate(3.846 16.039) translate(-17.3 -72.1)"/>
                    <path fill="url(#dm2a9m0w7x)" d="M58.42 84.706a53.64 53.64 0 0 0 11.1-4.65 40.052 40.052 0 0 1-8.589 4.228 46.927 46.927 0 0 1-12.68 2.516 63.127 63.127 0 0 1-12.972-.579 82.04 82.04 0 0 1-11.526-2.561l-.067 3.849A30.442 30.442 0 0 0 17.3 79.9c0-.022 22.251 9.879 41.12 4.806z" opacity="0.67" transform="translate(-417.56 -2) translate(417.56 70.208) translate(3.846 16.039) translate(-17.3 -78.164)"/>
                </g>
            </g>
        </g>
    </g>
</svg>
