<svg xmlns="http://www.w3.org/2000/svg" width="141.011" height="19.611" viewBox="0 0 141.011 19.611">
    <defs>
        <style>
            .cls-2{fill:#ffdc64}.cls-3{fill:#ffc850}
        </style>
    </defs>
    <g id="Group_637" transform="translate(-10 -18.104)">
        <g id="Group_458" transform="translate(131 18.605)">
            <g id="star">
                <path id="Path_743" fill="none" stroke="#ffc850" d="M19.041 18.595l-6.316-.586-2.509-5.826a.506.506 0 0 0-.93 0l-2.51 5.826-6.316.586a.506.506 0 0 0-.287.884l4.766 4.187-1.395 6.188a.506.506 0 0 0 .756.546l5.45-3.238L15.2 30.4a.506.506 0 0 0 .752-.546l-1.395-6.188 4.766-4.187a.506.506 0 0 0-.282-.884z" transform="translate(0 -11.877)"/>
            </g>
        </g>
        <g id="star-2" transform="translate(10 18.109)">
            <path id="Path_743-2" d="M20.056 18.953l-6.656-.617-2.64-6.136a.533.533 0 0 0-.979 0l-2.643 6.136-6.653.617a.533.533 0 0 0-.3.931l5.02 4.41-1.472 6.519a.533.533 0 0 0 .792.576l5.745-3.411 5.745 3.411a.533.533 0 0 0 .792-.576l-1.469-6.518 5.02-4.41a.533.533 0 0 0-.302-.932z" class="cls-2" transform="translate(0 -11.877)"/>
            <path id="Path_744" d="M10.76 12.2a.533.533 0 0 0-.979 0l-2.643 6.136-6.653.617a.533.533 0 0 0-.3.931l5.02 4.41-1.472 6.519a.533.533 0 0 0 .792.576l1.282-.761a23.515 23.515 0 0 1 6.259-15.393z" class="cls-3" transform="translate(0 -11.877)"/>
        </g>
        <g id="star-3" transform="translate(40 18.109)">
            <path id="Path_743-3" d="M20.056 18.953l-6.656-.617-2.64-6.136a.533.533 0 0 0-.979 0l-2.643 6.136-6.653.617a.533.533 0 0 0-.3.931l5.02 4.41-1.472 6.519a.533.533 0 0 0 .792.576l5.745-3.411 5.745 3.411a.533.533 0 0 0 .792-.576l-1.469-6.518 5.02-4.41a.533.533 0 0 0-.302-.932z" class="cls-2" transform="translate(0 -11.877)"/>
            <path id="Path_744-2" d="M10.76 12.2a.533.533 0 0 0-.979 0l-2.643 6.136-6.653.617a.533.533 0 0 0-.3.931l5.02 4.41-1.472 6.519a.533.533 0 0 0 .792.576l1.282-.761a23.515 23.515 0 0 1 6.259-15.393z" class="cls-3" transform="translate(0 -11.877)"/>
        </g>
        <g id="star-4" transform="translate(70 18.567)">
            <path id="Path_743-4" d="M20.056 18.953l-6.656-.617-2.64-6.136a.533.533 0 0 0-.979 0l-2.643 6.136-6.653.617a.533.533 0 0 0-.3.931l5.02 4.41-1.472 6.519a.533.533 0 0 0 .792.576l5.745-3.411 5.745 3.411a.533.533 0 0 0 .792-.576l-1.469-6.518 5.02-4.41a.533.533 0 0 0-.302-.932z" class="cls-2" transform="translate(0 -12.335)"/>
            <path id="Path_744-3" d="M10.76 12.2a.533.533 0 0 0-.979 0l-2.643 6.136-6.653.617a.533.533 0 0 0-.3.931l5.02 4.41-1.472 6.519a.533.533 0 0 0 .792.576l1.282-.761a23.515 23.515 0 0 1 6.259-15.393z" class="cls-3" transform="translate(0 -12.335)"/>
        </g>
        <g id="star-5" transform="translate(101 18.109)">
            <path id="Path_743-5" d="M20.056 18.953l-6.656-.617-2.64-6.136a.533.533 0 0 0-.979 0l-2.643 6.136-6.653.617a.533.533 0 0 0-.3.931l5.02 4.41-1.472 6.519a.533.533 0 0 0 .792.576l5.745-3.411 5.745 3.411a.533.533 0 0 0 .792-.576l-1.469-6.518 5.02-4.41a.533.533 0 0 0-.302-.932z" class="cls-2" transform="translate(0 -11.877)"/>
            <path id="Path_744-4" d="M10.76 12.2a.533.533 0 0 0-.979 0l-2.643 6.136-6.653.617a.533.533 0 0 0-.3.931l5.02 4.41-1.472 6.519a.533.533 0 0 0 .792.576l1.282-.761a23.515 23.515 0 0 1 6.259-15.393z" class="cls-3" transform="translate(0 -11.877)"/>
        </g>
    </g>
</svg>
