<svg xmlns="http://www.w3.org/2000/svg" id="Group_779" width="31.07" height="31.07" viewBox="0 0 31.07 31.07">
    <defs>
        <style>
            .cls-1{fill:#a5c5be}.cls-2{fill:#317666}
        </style>
    </defs>
    <path id="Path_1120" d="M388.531 47.845h-3.884a.647.647 0 0 1 0-1.295h3.236v-3.236a.647.647 0 0 1 1.295 0V47.2a.648.648 0 0 1-.647.645z" class="cls-1" transform="translate(-360.698 -40.078)"/>
    <path id="Path_1121" d="M15.535 31.07a15.535 15.535 0 0 1 0-31.07 15.743 15.743 0 0 1 9.5 3.258 14.925 14.925 0 0 1 3 3.079.647.647 0 0 1-1.045.765 14.217 14.217 0 1 0 2.789 8.433 12.924 12.924 0 0 0-.123-1.85.647.647 0 0 1 1.282-.184 14.158 14.158 0 0 1 .136 2.034A15.552 15.552 0 0 1 15.535 31.07z" class="cls-1"/>
    <g id="Group_780" transform="translate(5.425 7.768)">
        <path id="Path_1123" d="M127.42 217.911a.52.52 0 0 1-.07 0c-6.249-.566-9.611-4.119-9.993-10.56a.769.769 0 0 1 .227-.6.82.82 0 0 1 .594-.227 12.162 12.162 0 0 1 6.691 2.145.778.778 0 1 1-.935 1.243 9.977 9.977 0 0 0-4.947-1.758c.572 5.051 3.362 7.738 8.5 8.2a.778.778 0 0 1-.07 1.553z" class="cls-2" transform="translate(-117.355 -202.366)"/>
        <path id="Path_1124" d="M246.728 217.894a.778.778 0 0 1-.07-1.553c5.141-.465 7.932-3.152 8.5-8.2a9.985 9.985 0 0 0-4.947 1.758.778.778 0 0 1-.935-1.243 12.146 12.146 0 0 1 6.691-2.145.78.78 0 0 1 .823.823c-.383 6.44-3.744 9.993-9.993 10.56a.547.547 0 0 1-.072 0z" class="cls-2" transform="translate(-236.573 -202.349)"/>
        <path id="Path_1122" d="M206.328 165.038a.778.778 0 0 1-.582-.261c-4.434-4.987-4.434-10.046 0-15.034a.8.8 0 0 1 1.162 0c4.434 4.987 4.434 10.046 0 15.034a.772.772 0 0 1-.58.261zm0-13.573c-3.1 3.892-3.1 7.7 0 11.588 3.104-3.891 3.104-7.696 0-11.588z" class="cls-2" transform="translate(-196.218 -149.493)"/>
    </g>
</svg>
