<svg xmlns="http://www.w3.org/2000/svg" width="36.254" height="36.254" viewBox="0 0 36.254 36.254">
    <circle cx="18.127" cy="18.127" r="18.127" fill="#007ab9"/>
    <g>
        <path fill="#f1f2f2" d="M47.279 35.809v7.473h-4.333V36.31c0-1.751-.626-2.946-2.194-2.946a2.37 2.37 0 0 0-2.223 1.584A2.966 2.966 0 0 0 38.386 36v7.278h-4.333s.058-11.809 0-13.032h4.334V32.1c-.009.015-.021.029-.029.043h.029V32.1a4.3 4.3 0 0 1 3.905-2.153c2.851 0 4.988 1.863 4.988 5.865zM29.52 23.969a2.258 2.258 0 1 0-.057 4.5h.028a2.259 2.259 0 1 0 .029-4.5zm-2.194 19.314h4.332V30.251h-4.332z" transform="translate(8.747 7.746) translate(-27.068 -23.969)"/>
    </g>
</svg>
