<svg xmlns="http://www.w3.org/2000/svg" id="insta_2" width="36.25" height="36.25" viewBox="0 0 36.25 36.25">
    <defs>
        <style>
            .cls-3{fill:#fff}.cls-4{fill:#d1d1d1}
        </style>
    </defs>
    <circle id="Ellipse_12" cx="18.125" cy="18.125" r="18.125" fill="#6c27b3"/>
    <path id="Path_12" fill="#501a96" d="M141.134 125.952a32.159 32.159 0 0 1-7.057.051c-3.345-.257-8.233-1.8-10.034 1.286-2.893 4.943-1.466 11.27-.792 16.87l10.054 10.052a19.1 19.1 0 0 0 18.046-18.043z" transform="translate(-115.129 -117.989)"/>
    <g id="Group_20" transform="translate(7.191 7.191)">
        <path id="Path_13" d="M124.822 109.468h-8.839a6.522 6.522 0 0 0-6.515 6.515v8.839a6.522 6.522 0 0 0 6.515 6.515h8.839a6.522 6.522 0 0 0 6.515-6.515v-8.839a6.522 6.522 0 0 0-6.515-6.515zm4.315 15.354a4.315 4.315 0 0 1-4.315 4.315h-8.839a4.315 4.315 0 0 1-4.315-4.315v-8.839a4.315 4.315 0 0 1 4.315-4.315h8.839a4.315 4.315 0 0 1 4.315 4.315z" class="cls-3" transform="translate(-109.468 -109.468)"/>
        <path id="Path_14" d="M185.858 180.2a5.656 5.656 0 1 0 5.656 5.656 5.663 5.663 0 0 0-5.656-5.656zm0 9.112a3.456 3.456 0 1 1 3.456-3.456 3.456 3.456 0 0 1-3.456 3.456z" class="cls-3" transform="translate(-174.924 -174.924)"/>
    </g>
    <g id="Group_21" transform="translate(17.691 7.191)">
        <path id="Path_15" d="M316.488 163.966a1.355 1.355 0 1 1-1.355-1.355 1.355 1.355 0 0 1 1.355 1.355z" class="cls-4" transform="translate(-309.423 -158.645)"/>
        <path id="Path_16" d="M259.889 109.468h-4.463v2.2h4.463a4.315 4.315 0 0 1 4.315 4.315v8.839a4.315 4.315 0 0 1-4.315 4.315h-4.463v2.2h4.463a6.522 6.522 0 0 0 6.515-6.515v-8.839a6.522 6.522 0 0 0-6.515-6.515z" class="cls-4" transform="translate(-255.426 -109.468)"/>
        <path id="Path_17" d="M255.469 180.2h-.043v2.2h.043a3.456 3.456 0 0 1 0 6.912h-.043v2.2h.043a5.656 5.656 0 0 0 0-11.312z" class="cls-4" transform="translate(-255.426 -174.924)"/>
    </g>
</svg>
