<svg xmlns="http://www.w3.org/2000/svg" width="20.541" height="19.588" viewBox="0 0 20.541 19.588">
    <path fill="#ffdc64" d="M20.056 18.953l-6.656-.617-2.64-6.136a.533.533 0 0 0-.979 0l-2.643 6.136-6.653.617a.533.533 0 0 0-.3.931l5.02 4.41-1.472 6.519a.533.533 0 0 0 .792.576l5.745-3.411 5.745 3.411a.533.533 0 0 0 .792-.576l-1.469-6.518 5.02-4.41a.533.533 0 0 0-.302-.932z" transform="translate(0 -11.877)"/>
    <path fill="#ffc850" d="M10.76 12.2a.533.533 0 0 0-.979 0l-2.643 6.136-6.653.617a.533.533 0 0 0-.3.931l5.02 4.41-1.472 6.519a.533.533 0 0 0 .792.576l1.282-.761a23.515 23.515 0 0 1 6.259-15.393z" transform="translate(0 -11.877)"/>
</svg>
m="translate(0 .459) translate(0 -12.335)"/>
    </g>
</svg>
