<svg xmlns="http://www.w3.org/2000/svg" width="36.254" height="36.254" viewBox="0 0 36.254 36.254">
    <circle cx="18.127" cy="18.127" r="18.127" fill="#55acee"/>
    <g>
        <path fill="#f1f2f2" d="M46.222 36.06a8.645 8.645 0 0 1-2.489.681 4.345 4.345 0 0 0 1.906-2.4 8.674 8.674 0 0 1-2.751 1.059 4.337 4.337 0 0 0-7.388 3.948 12.3 12.3 0 0 1-8.931-4.528 4.338 4.338 0 0 0 1.341 5.785 4.3 4.3 0 0 1-1.962-.543v.055a4.335 4.335 0 0 0 3.476 4.248 4.35 4.35 0 0 1-1.957.075 4.338 4.338 0 0 0 4.048 3.009 8.747 8.747 0 0 1-6.415 1.795 12.322 12.322 0 0 0 18.97-10.382c0-.188 0-.375-.013-.56a8.787 8.787 0 0 0 2.162-2.243z" transform="translate(8.111 10.996) translate(-25.103 -34.028)"/>
    </g>
</svg>
